<?xml version="1.0" encoding="utf-8"?>
<!-- Generator: Adobe Illustrator 16.0.0, SVG Export Plug-In . SVG Version: 6.00 Build 0)  -->
<!DOCTYPE svg PUBLIC "-//W3C//DTD SVG 1.1//EN" "http://www.w3.org/Graphics/SVG/1.1/DTD/svg11.dtd">
<svg version="1.1" id="Layer_1" xmlns="http://www.w3.org/2000/svg" xmlns:xlink="http://www.w3.org/1999/xlink" x="0px" y="0px"
	 width="512px" height="512px" viewBox="0 0 512 512" enable-background="new 0 0 512 512" xml:space="preserve">
<g>
	<path stroke="white" fill="white" d="M454.928,237.161l-32.273-89.114c-5.769-15.921-22.479-25.068-38.994-21.332l-51.145,11.539
		c5.249,9.184,8.488,19.664,8.488,30.978c0,34.705-28.228,62.926-62.924,62.926c-34.686,0-62.908-28.221-62.908-62.926
		c0-1.577,0.35-3.056,0.464-4.604L73.409,196.723c-15.695,3.542-26.84,17.482-26.84,33.582v192.493
		c0,24.713,18.545,45.151,43.136,47.555l314.833,30.707c1.535,0.146,3.071,0.228,4.605,0.228c11.894,0,23.298-4.402,32.104-12.379
		c9.969-9.034,15.687-21.934,15.687-35.403V248.599C456.934,244.7,456.252,240.817,454.928,237.161z M82.362,242.247
		c1.599-1.462,3.744-2.161,5.905-1.95l328.465,32.022c3.931,0.391,6.929,3.688,6.929,7.653v77.395
		c-1.594,0.597-3.189,1.232-4.59,2.346c-3.785,3.021-8.708,4.45-13.549,3.866c-4.988-0.617-9.432-3.103-12.528-7.002l-1.136-1.381
		c-8.75-10.383-21.373-17.206-34.899-18.798c-13.525-1.641-26.75,1.835-37.684,9.651l-2.169,1.624
		c-3.858,3.071-8.676,4.5-13.614,3.834c-4.647-0.552-8.806-2.73-11.821-6.157l-0.657-0.829
		c-18.449-23.348-52.503-27.344-75.866-8.92l-0.797,0.634c-3.777,2.666-8.351,3.835-13.03,3.234
		c-4.791-0.538-9.269-3.04-12.306-6.906c-8.944-11.339-21.747-18.505-36.083-20.21c-14.168-1.657-28.644,2.452-39.822,11.258
		c-3.908,3.088-8.798,4.404-13.672,3.883c-4.915-0.567-9.31-3.038-12.388-6.938c-1.931-2.445-4.491-3.929-7.205-4.962v-67.661
		C79.843,245.755,80.761,243.692,82.362,242.247z M418.909,464.246c-2.682,2.436-6.15,3.768-9.766,3.768L92.938,437.242
		c-7.465-0.73-13.095-6.938-13.095-14.444v-66.975c17.17,7.94,38.045,6.402,53.94-6.103c4.256-3.381,9.854-4.956,15.248-4.322
		c5.499,0.65,10.421,3.412,13.842,7.75c8.49,10.804,21.145,17.871,34.565,19.367c13.771,1.706,27.336-2.112,38.277-10.722
		l0.919-0.715c8.668-6.143,20.691-4.712,27.669,3.347l0.601,0.764c8.555,10.835,20.853,17.725,34.663,19.365
		c12.917,1.496,25.629-1.738,36.1-9.228l2.138-1.576c4.337-3.429,9.764-4.922,15.248-4.305c5.41,0.634,10.421,3.429,13.761,7.685
		l1.219,1.462c8.489,10.025,20.309,16.394,33.525,18.018c1.99,0.228,3.979,0.341,5.971,0.341c5.497,0,10.939-0.946,16.133-2.635
		v59.19C423.66,457.599,421.931,461.516,418.909,464.246z"/>
	<path stroke="white" fill="white" d="M215.497,36.334c48.088,27.136,53.64,87.477,53.645,87.517c-21.248,4.181-37.333,22.92-37.333,45.382
		c0,25.524,20.754,46.289,46.271,46.289c25.524,0,46.287-20.764,46.287-46.289c0-23.25-17.285-42.362-39.648-45.615
		c0.008-0.422,4.48-74.546-53.234-116.464c-8.058-4.419-18.179-1.461-22.583,6.596C204.481,21.808,207.372,31.749,215.497,36.334z"
		/>
</g>
</svg>
