<svg xmlns="http://www.w3.org/2000/svg" width="120.63" height="39.25" viewBox="0 0 113.091 36.797">
  <path fill="none" stroke="#000" stroke-width=".784" d="M112.975 24.263c-9.247-2.855-18.494-5.71-28.656-7.053-10.161-1.344-21.237-1.176-32.313-1.008M.116 25.93c9.247-2.856 18.494-5.71 28.655-7.054 10.162-1.343 21.238-1.175 32.314-1.007" class="connection"/>
  <g class="label" transform="rotate(9.931 -170.706 585.405)">
    <rect width="17.328" height="27" x="-8.656" y="-16.297" fill="none" rx="3" ry="3" transform="rotate(4.338)"/>
    <text x=".493" y="-9.062" stroke-width="2" display="null" font-family="sans-serif" font-size="24" text-anchor="middle" transform="rotate(4.338)">
      <tspan x=".493" class="v-line" dy="0">D</tspan>
    </text>
    <path fill="#cdfecd" stroke="#000" stroke-width="2" d="M0 18L15 0h100l15 18-15 18H15z" transform="matrix(.47844 -.08376 .17614 1.00605 -77.15 -24.575)"/>
  </g>
  <text x="353.581" y="1186.602" display="null" font-family="Arial,helvetica,sans-serif" font-size="12" font-weight="700" text-anchor="middle" transform="translate(-296.472 -1165.204)">
    <tspan x="353.581" class="v-line">task</tspan>
  </text>
</svg>