<svg xmlns="http://www.w3.org/2000/svg" xmlns:xlink="http://www.w3.org/1999/xlink" version="1.1" id="v-2" width="1050" height="550"><g id="v-3" class="joint-viewport" transform="matrix(1,0,0,1,8,10)" style="cursor: move;"><g model-id="6a76ceb5-f287-462d-bf57-a266cc19c243" id="j_12" class="joint-cell joint-type-istar joint-type-istar-actor joint-element joint-theme-default" data-type="istar.Actor" transform="translate(572,30)" style="cursor: move;"><g id="v-88" style="cursor: move;"><rect class="boundary" id="v-91" width="450" height="490" rx="100" ry="40" fill="rgb(230,230,230)" stroke="black" stroke-width="2" stroke-dasharray="10,5,4,4" style="stroke: black; stroke-width: 2;"/><circle class="element actorKindMain" id="v-89" transform="translate(-20, -20)" r="40" cx="40" cy="40" fill="rgb(205,254,205)" stroke="black" stroke-width="2" style="stroke: black; stroke-width: 2; cursor: move;"/><path/><text id="v-90" font-size="12" xml:space="preserve" y="0.8em" text-anchor="middle" fill="#000000" font-family="Arial, helvetica, sans-serif" transform="matrix(1,0,0,1,20,14.4)"><tspan id="v-92" class="v-line" dy="0em">Actor</tspan></text></g></g><g model-id="9cab7456-727b-4d7e-81dd-af8903718cb3" id="j_9" class="joint-cell joint-type-istar joint-type-istar-actor joint-element joint-theme-default" data-type="istar.Actor" transform="translate(202,76)" style="cursor: move;"><g id="v-69" style="cursor: move;"><rect class="boundary" id="v-72" width="210" height="169" rx="100" ry="40" fill="rgb(230,230,230)" stroke="black" stroke-width="2" stroke-dasharray="10,5,4,4" display="none" style="stroke: black; stroke-width: 2;"/><circle class="element actorKindMain" id="v-70" transform="translate(-20, -20)" r="40" cx="40" cy="40" fill="rgb(205,254,205)" stroke="black" stroke-width="2" style="stroke: black; stroke-width: 2; cursor: move;"/><path/><text id="v-71" font-size="12" xml:space="preserve" y="0.8em" text-anchor="middle" fill="#000000" font-family="Arial, helvetica, sans-serif" transform="matrix(1,0,0,1,20,14.4)"><tspan id="v-73" class="v-line" dy="0em">Actor</tspan></text></g></g><g model-id="ccf83503-3c8f-4886-a30f-8a290499d8b2" id="j_8" class="joint-cell joint-type-istar joint-type-istar-role joint-element joint-theme-default" data-type="istar.Role" transform="translate(309,447)" style="cursor: move;"><g id="v-61" style="cursor: move;"><rect class="boundary" id="v-64" width="200" height="120" rx="100" ry="40" fill="rgb(230,230,230)" stroke="black" stroke-width="2" stroke-dasharray="10,5,4,4" display="none"/><circle class="element actorKindMain" id="v-62" transform="translate(-20, -20)" r="40" cx="40" cy="40" fill="rgb(205,254,205)" stroke="black" stroke-width="2" style="cursor: move;"/><path class="actorDecorator" id="v-65" d="m -11 45 q 30 15 62 0" stroke="black" stroke-width="1.5" fill="none"/><text id="v-63" font-size="12" xml:space="preserve" y="0.8em" text-anchor="middle" fill="#000000" font-family="Arial, helvetica, sans-serif" transform="matrix(1,0,0,1,20,14.4)"><tspan id="v-66" class="v-line" dy="0em">Role</tspan></text></g></g><g model-id="2b3ba506-1f5b-4b5b-9114-01b1092cd067" id="j_7" class="joint-cell joint-type-istar joint-type-istar-agent joint-element joint-theme-default" data-type="istar.Agent" transform="translate(56,342)" style="cursor: move;"><g id="v-53" style="cursor: move;"><rect class="boundary" id="v-56" width="200" height="120" rx="100" ry="40" fill="rgb(230,230,230)" stroke="black" stroke-width="2" stroke-dasharray="10,5,4,4" display="none"/><circle class="element actorKindMain" id="v-54" transform="translate(-20, -20)" r="40" cx="40" cy="40" fill="rgb(205,254,205)" stroke="black" stroke-width="2" style="cursor: move;"/><path class="actorDecorator" id="v-57" d="m -10 -5 60 0" stroke="black" stroke-width="1.5" fill="none"/><text id="v-55" font-size="12" xml:space="preserve" y="0.8em" text-anchor="middle" fill="#000000" font-family="Arial, helvetica, sans-serif" transform="matrix(1,0,0,1,20,14.4)"><tspan id="v-58" class="v-line" dy="0em">Agent</tspan></text></g></g><g model-id="b34b1008-ddd1-401a-b549-d5cf135a7d87" id="j_33" class="joint-cell joint-type-istar joint-type-istar-dependencylink joint-link joint-theme-default" data-type="istar.DependencyLink" style="cursor: move;"><path class="connection" stroke="black" d="M 529 190 C 536.9166666666667 189.75 544.8333333333334 189.5 568 195 C 591.1666666666666 200.5 629.5833333333333 211.75 668 223" id="v-268" fill="none"/><path class="marker-source" fill="black" stroke="black" d="" id="v-270" transform="translate(529,190) scale(1,1) rotate(7.305755615234403)"/><path class="marker-target" fill="black" stroke="black" d="" id="v-271" transform="translate(668,223) scale(1,1) rotate(-164.35775756835938)"/><path class="connection-wrap" d="M 529 190 C 536.9166666666667 189.75 544.8333333333334 189.5 568 195 C 591.1666666666666 200.5 629.5833333333333 211.75 668 223" id="v-269" fill="none"/><g class="labels" style="cursor: move;"><g class="label" id="v-264" label-idx="0" cursor="default" transform="translate(599.1444702148438, 203.15872192382812)" style="cursor: move;"><rect id="v-266" fill="none" rx="3" ry="3" width="17.328125" height="27" transform="rotate(12.461755920553795) translate(0,-11)"/><text id="v-265" font-size="24" xml:space="preserve" y="0.8em" text-anchor="middle" fill="#000000" pointer-events="none" stroke-width="2" font-family="sans-serif" font-style="normal" transform="rotate(12.461755920553795) translate(0,-11)"><tspan id="v-267" class="v-line" dy="0em">D</tspan></text></g></g><g class="marker-vertices" style="cursor: move; display: none;"><g class="marker-vertex-group" transform="translate(568, 195)" id="v-273" style="cursor: move;"><circle class="marker-vertex" idx="0" r="10"/><path class="marker-vertex-remove-area" idx="0" d="M16,5.333c-7.732,0-14,4.701-14,10.5c0,1.982,0.741,3.833,2.016,5.414L2,25.667l5.613-1.441c2.339,1.317,5.237,2.107,8.387,2.107c7.732,0,14-4.701,14-10.5C30,10.034,23.732,5.333,16,5.333z" transform="translate(5, -33)"/><path class="marker-vertex-remove" idx="0" transform="scale(.8) translate(9.5, -37)" d="M24.778,21.419 19.276,15.917 24.777,10.415 21.949,7.585 16.447,13.087 10.945,7.585 8.117,10.415 13.618,15.917 8.116,21.419 10.946,24.248 16.447,18.746 21.948,24.248z"><title>Remove vertex.</title></path></g></g><g class="marker-arrowheads" style="cursor: move; display: none;"><g id="v-261" transform="translate(529,190) scale(1,1) rotate(7.305755615234403)" style="cursor: move;"/><g id="v-262" transform="translate(668,223) scale(1,1) rotate(-164.35775756835938)" style="cursor: move;"/></g><g class="link-tools" style="cursor: move; display: none;"><g id="v-260" transform="translate(568.5245361328125, 195.12527465820312) " style="cursor: pointer;"/></g></g><g model-id="4f5def34-386b-484f-843b-608d4a101cf4" id="j_32" class="joint-cell joint-type-istar joint-type-istar-dependencylink joint-link joint-theme-default" data-type="istar.DependencyLink" style="cursor: move;"><path class="connection" stroke="black" d="M 263 109 477 180" id="v-256" fill="none"/><path class="marker-source" fill="black" stroke="black" d="" id="v-258" transform="translate(263,109) scale(1,1) rotate(18.35458374023439)"/><path class="marker-target" fill="black" stroke="black" d="" id="v-259" transform="translate(477,180) scale(1,1) rotate(-161.64541625976562)"/><path class="connection-wrap" d="M 263 109 477 180" id="v-257" fill="none"/><g class="labels" style="cursor: move;"><g class="label" id="v-252" label-idx="0" cursor="default" transform="translate(370, 144.5)" style="cursor: move;"><rect id="v-254" fill="none" rx="3" ry="3" width="17.328125" height="27" transform="rotate(20.330571081536764) translate(0,-11)"/><text id="v-253" font-size="24" xml:space="preserve" y="0.8em" text-anchor="middle" fill="#000000" pointer-events="none" stroke-width="2" font-family="sans-serif" font-style="normal" transform="rotate(20.330571081536764) translate(0,-11)"><tspan id="v-255" class="v-line" dy="0em">D</tspan></text></g></g><g class="marker-vertices" style="cursor: move; display: none;"/><g class="marker-arrowheads" style="cursor: move; display: none;"><g id="v-249" transform="translate(263,109) scale(1,1) rotate(18.35458374023439)" style="cursor: move;"/><g id="v-250" transform="translate(477,180) scale(1,1) rotate(-161.64541625976562)" style="cursor: move;"/></g><g class="link-tools" style="cursor: move; display: none;"><g id="v-248" transform="translate(300.96502685546875, 121.59587860107422) " style="cursor: pointer;"/></g></g><g model-id="141d22ab-1e9e-4488-b42d-56f9e64ce663" id="j_30" class="joint-cell joint-type-istar joint-type-istar-dependencylink joint-link joint-theme-default" data-type="istar.DependencyLink" style="cursor: move;"><path class="connection" stroke="black" d="M 421 358 364 426" id="v-237" fill="none"/><path class="marker-source" fill="black" stroke="black" d="" id="v-239" transform="translate(421,358) scale(1,1) rotate(-230.02906799316406)"/><path class="marker-target" fill="black" stroke="black" d="" id="v-240" transform="translate(364,426) scale(1,1) rotate(-50.02907180786132)"/><path class="connection-wrap" d="M 421 358 364 426" id="v-238" fill="none"/><g class="labels" style="cursor: move;"><g class="label" id="v-233" label-idx="0" cursor="default" transform="translate(392.5, 392)" style="cursor: move;"><rect id="v-235" fill="none" rx="3" ry="3" width="17.328125" height="27" transform="rotate(121.5513849483135) translate(0,-11)"/><text id="v-234" font-size="24" xml:space="preserve" y="0.8em" text-anchor="middle" fill="#000000" pointer-events="none" stroke-width="2" font-family="sans-serif" font-style="normal" transform="rotate(121.5513849483135) translate(0,-11)"><tspan id="v-236" class="v-line" dy="0em">D</tspan></text></g></g><g class="marker-vertices" style="cursor: move; display: none;"/><g class="marker-arrowheads" style="cursor: move; display: none;"><g id="v-230" transform="translate(421,358) scale(0.5,0.5) rotate(-230.02906799316406)" style="cursor: move;"/><g id="v-231" transform="translate(364,426) scale(0.5,0.5) rotate(-50.02907180786132)" style="cursor: move;"/></g><g class="link-tools" style="cursor: move; display: none;"><g id="v-229" transform="translate(408.15203857421875, 373.3274230957031) scale(.5)" style="cursor: pointer;"/></g></g><g model-id="0df88b90-6988-4b84-abcf-f3a17b75b5c0" id="j_29" class="joint-cell joint-type-istar joint-type-istar-dependencylink joint-link joint-theme-default" data-type="istar.DependencyLink" style="cursor: move;"><path class="connection" stroke="black" d="M 255 137 421 344" id="v-225" fill="none"/><path class="marker-source" fill="black" stroke="black" d="" id="v-227" transform="translate(255,137) scale(1,1) rotate(51.272735595703125)"/><path class="marker-target" fill="black" stroke="black" d="" id="v-228" transform="translate(421,344) scale(1,1) rotate(-128.7272491455078)"/><path class="connection-wrap" d="M 255 137 421 344" id="v-226" fill="none"/><g class="labels" style="cursor: move;"><g class="label" id="v-221" label-idx="0" cursor="default" transform="translate(338, 240.5)" style="cursor: move;"><rect id="v-223" fill="none" rx="3" ry="3" width="17.328125" height="27" transform="rotate(55.444195475355855) translate(0,-11)"/><text id="v-222" font-size="24" xml:space="preserve" y="0.8em" text-anchor="middle" fill="#000000" pointer-events="none" stroke-width="2" font-family="sans-serif" font-style="normal" transform="rotate(55.444195475355855) translate(0,-11)"><tspan id="v-224" class="v-line" dy="0em">D</tspan></text></g></g><g class="marker-vertices" style="cursor: move; display: none;"/><g class="marker-arrowheads" style="cursor: move; display: none;"><g id="v-218" transform="translate(255,137) scale(1,1) rotate(51.272735595703125)" style="cursor: move;"/><g id="v-219" transform="translate(421,344) scale(1,1) rotate(-128.7272491455078)" style="cursor: move;"/></g><g class="link-tools" style="cursor: move; display: none;"><g id="v-217" transform="translate(280.0245361328125, 168.20530700683594) " style="cursor: pointer;"/></g></g><g model-id="0e00397e-5671-4074-bcef-3b7ac31bbb0f" id="j_27" class="joint-cell joint-type-istar joint-type-istar-dependencylink joint-link joint-theme-default" data-type="istar.DependencyLink" style="cursor: move;"><path class="connection" stroke="black" d="M 233 356 294 426" id="v-205" fill="none"/><path class="marker-source" fill="black" stroke="black" d="" id="v-207" transform="translate(233,356) scale(1,1) rotate(48.93017578125003)"/><path class="marker-target" fill="black" stroke="black" d="" id="v-208" transform="translate(294,426) scale(1,1) rotate(-131.06982421875)"/><path class="connection-wrap" d="M 233 356 294 426" id="v-206" fill="none"/><g class="labels" style="cursor: move;"><g class="label" id="v-201" label-idx="0" cursor="default" transform="translate(263.5, 391)" style="cursor: move;"><rect id="v-203" fill="none" rx="3" ry="3" width="17.328125" height="27" transform="rotate(41.93771291459995) translate(0,-11)"/><text id="v-202" font-size="24" xml:space="preserve" y="0.8em" text-anchor="middle" fill="#000000" pointer-events="none" stroke-width="2" font-family="sans-serif" font-style="normal" transform="rotate(41.93771291459995) translate(0,-11)"><tspan id="v-204" class="v-line" dy="0em">D</tspan></text></g></g><g class="marker-vertices" style="cursor: move; display: none;"/><g class="marker-arrowheads" style="cursor: move; display: none;"><g id="v-198" transform="translate(233,356) scale(0.5,0.5) rotate(48.93017578125003)" style="cursor: move;"/><g id="v-199" transform="translate(294,426) scale(0.5,0.5) rotate(-131.06982421875)" style="cursor: move;"/></g><g class="link-tools" style="cursor: move; display: none;"><g id="v-197" transform="translate(246.13955688476562, 371.07818603515625) scale(.5)" style="cursor: pointer;"/></g></g><g model-id="a06cddb9-c9bd-463b-b96c-9159aa96bde6" id="j_26" class="joint-cell joint-type-istar joint-type-istar-dependencylink joint-link joint-theme-default" data-type="istar.DependencyLink" style="cursor: move;"><path class="connection" stroke="black" d="M 223 137 227 342" id="v-193" fill="none"/><path class="marker-source" fill="black" stroke="black" d="" id="v-195" transform="translate(223,137) scale(1,1) rotate(88.8821716308594)"/><path class="marker-target" fill="black" stroke="black" d="" id="v-196" transform="translate(227,342) scale(1,1) rotate(-91.11782836914062)"/><path class="connection-wrap" d="M 223 137 227 342" id="v-194" fill="none"/><g class="labels" style="cursor: move;"><g class="label" id="v-189" label-idx="0" cursor="default" transform="translate(225, 239.5)" style="cursor: move;"><rect id="v-191" fill="none" rx="3" ry="3" width="17.328125" height="27" transform="rotate(94.6895443773461) translate(0,-11)"/><text id="v-190" font-size="24" xml:space="preserve" y="0.8em" text-anchor="middle" fill="#000000" pointer-events="none" stroke-width="2" font-family="sans-serif" font-style="normal" transform="rotate(94.6895443773461) translate(0,-11)"><tspan id="v-192" class="v-line" dy="0em">D</tspan></text></g></g><g class="marker-vertices" style="cursor: move; display: none;"/><g class="marker-arrowheads" style="cursor: move; display: none;"><g id="v-186" transform="translate(223,137) scale(1,1) rotate(88.8821716308594)" style="cursor: move;"/><g id="v-187" transform="translate(227,342) scale(1,1) rotate(-91.11782836914062)" style="cursor: move;"/></g><g class="link-tools" style="cursor: move; display: none;"><g id="v-185" transform="translate(223.78033447265625, 176.9923858642578) " style="cursor: pointer;"/></g></g><g model-id="ad49853c-cc69-4c4c-8da2-ca7267235d4f" id="j_24" class="joint-cell joint-type-istar joint-type-istar-dependencylink joint-link joint-theme-default" data-type="istar.DependencyLink" style="cursor: move;"><path class="connection" stroke="black" d="M 58 203 71 321" id="v-173" fill="none"/><path class="marker-source" fill="black" stroke="black" d="" id="v-175" transform="translate(58,203) scale(1,1) rotate(83.7131042480469)"/><path class="marker-target" fill="black" stroke="black" d="" id="v-176" transform="translate(71,321) scale(1,1) rotate(-96.28689575195311)"/><path class="connection-wrap" d="M 58 203 71 321" id="v-174" fill="none"/><g class="labels" style="cursor: move;"><g class="label" id="v-169" label-idx="0" cursor="default" transform="translate(64.5, 262)" style="cursor: move;"><rect id="v-171" fill="none" rx="3" ry="3" width="17.328125" height="27" transform="rotate(74.98163936884933) translate(0,-11)"/><text id="v-170" font-size="24" xml:space="preserve" y="0.8em" text-anchor="middle" fill="#000000" pointer-events="none" stroke-width="2" font-family="sans-serif" font-style="normal" transform="rotate(74.98163936884933) translate(0,-11)"><tspan id="v-172" class="v-line" dy="0em">D</tspan></text></g></g><g class="marker-vertices" style="cursor: move; display: none;"/><g class="marker-arrowheads" style="cursor: move; display: none;"><g id="v-166" transform="translate(58,203) scale(1,1) rotate(83.7131042480469)" style="cursor: move;"/><g id="v-167" transform="translate(71,321) scale(1,1) rotate(-96.28689575195311)" style="cursor: move;"/></g><g class="link-tools" style="cursor: move; display: none;"><g id="v-165" transform="translate(62.380279541015625, 242.75942993164062) " style="cursor: pointer;"/></g></g><g model-id="218685bf-6db3-405f-aae9-1f5b12209a45" id="j_23" class="joint-cell joint-type-istar joint-type-istar-dependencylink joint-link joint-theme-default" data-type="istar.DependencyLink" style="cursor: move;"><path class="connection" stroke="black" d="M 181 107 C 156.33333333333334 109.66666666666667 131.66666666666669 112.33333333333334 112 126 C 92.33333333333333 139.66666666666666 77.66666666666666 164.33333333333331 63 189" id="v-161" fill="none"/><path class="marker-source" fill="black" stroke="black" d="" id="v-163" transform="translate(181,107) scale(1,1) rotate(-195.3955535888672)"/><path class="marker-target" fill="black" stroke="black" d="" id="v-164" transform="translate(63,189) scale(1,1) rotate(-52.12501525878906)"/><path class="connection-wrap" d="M 181 107 C 156.33333333333334 109.66666666666667 131.66666666666669 112.33333333333334 112 126 C 92.33333333333333 139.66666666666666 77.66666666666666 164.33333333333331 63 189" id="v-162" fill="none"/><g class="labels" style="cursor: move;"><g class="label" id="v-157" label-idx="0" cursor="default" transform="translate(108.76162719726562, 128.38255310058594)" style="cursor: move;"><rect id="v-159" fill="none" rx="3" ry="3" width="17.328125" height="27" transform="rotate(151.77122381863043) translate(0,-11)"/><text id="v-158" font-size="24" xml:space="preserve" y="0.8em" text-anchor="middle" fill="#000000" pointer-events="none" stroke-width="2" font-family="sans-serif" font-style="normal" transform="rotate(151.77122381863043) translate(0,-11)"><tspan id="v-160" class="v-line" dy="0em">D</tspan></text></g></g><g class="marker-vertices" style="cursor: move; display: none;"><g class="marker-vertex-group" transform="translate(112, 126)" id="v-177" style="cursor: move;"><circle class="marker-vertex" idx="0" r="10"/><path class="marker-vertex-remove-area" idx="0" d="M16,5.333c-7.732,0-14,4.701-14,10.5c0,1.982,0.741,3.833,2.016,5.414L2,25.667l5.613-1.441c2.339,1.317,5.237,2.107,8.387,2.107c7.732,0,14-4.701,14-10.5C30,10.034,23.732,5.333,16,5.333z" transform="translate(5, -33)"/><path class="marker-vertex-remove" idx="0" transform="scale(.8) translate(9.5, -37)" d="M24.778,21.419 19.276,15.917 24.777,10.415 21.949,7.585 16.447,13.087 10.945,7.585 8.117,10.415 13.618,15.917 8.116,21.419 10.946,24.248 16.447,18.746 21.948,24.248z"><title>Remove vertex.</title></path></g></g><g class="marker-arrowheads" style="cursor: move; display: none;"><g id="v-154" transform="translate(181,107) scale(1,1) rotate(-195.3955535888672)" style="cursor: move;"/><g id="v-155" transform="translate(63,189) scale(1,1) rotate(-52.12501525878906)" style="cursor: move;"/></g><g class="link-tools" style="cursor: move; display: none;"><g id="v-153" transform="translate(141.5090789794922, 113.13333129882812) " style="cursor: pointer;"/></g></g><g model-id="e1acd9b0-c9e9-468b-845c-c7b08db3020f" id="j_10" class="joint-cell joint-type-istar joint-type-istar-goal joint-element joint-theme-default" data-type="istar.Goal" fill="#ffffff" stroke="none" transform="translate(284,105)" display="none" style="cursor: move;"><g class="rotatable" id="v-76" style="cursor: move;"><g class="scalable" transform="scale(0.6923076923076923,1.1666666666666667)" style="cursor: move;"><rect id="v-77" fill="rgb(205,254,205)" stroke="black" stroke-width="2" width="130" height="30" rx="20"/></g><text id="v-78" font-size="12" xml:space="preserve" y="0.8em" font-weight="bold" fill="#000000" text-anchor="middle" font-family="Arial, helvetica, sans-serif" transform="matrix(1,0,0,1,45,11.9)"><tspan id="v-79" class="v-line" dy="0em">Goal</tspan></text></g></g><g model-id="b64fbf2b-b55e-4510-b31f-9adef8de5b69" id="j_11" class="joint-cell joint-type-istar joint-type-istar-task joint-element joint-theme-default" data-type="istar.Task" fill="#ffffff" stroke="none" transform="translate(305,199)" display="none" style="cursor: move;"><g class="rotatable" id="v-82" style="cursor: move;"><g class="scalable" transform="scale(0.7307692307692307,1)" style="cursor: move;"><polygon id="v-83" points="0,18 15,0 115,0 130,18 115,36 15,36" fill="rgb(205,254,205)" stroke="black" stroke-width="2" width="130" height="36"/></g><text id="v-84" font-size="12" xml:space="preserve" y="0.8em" font-weight="bold" text-anchor="middle" fill="#000000" font-family="Arial, helvetica, sans-serif" transform="matrix(1,0,0,1,47.5,12.4)"><tspan id="v-85" class="v-line" dy="0em">Task</tspan></text></g></g><g model-id="4c3ba102-6514-47a4-b21c-8a8f8cdae0cc" id="j_13" class="joint-cell joint-type-istar joint-type-istar-goal joint-element joint-theme-default" data-type="istar.Goal" fill="#ffffff" stroke="none" transform="translate(702,45)" style="cursor: move;"><g class="rotatable" id="v-95" style="cursor: move;"><g class="scalable" transform="scale(0.6923076923076923,1.1666666666666667)" style="cursor: move;"><rect id="v-96" fill="rgb(205,254,205)" stroke="black" stroke-width="2" width="130" height="30" rx="20"/></g><text id="v-97" font-size="12" xml:space="preserve" y="0.8em" font-weight="bold" fill="#000000" text-anchor="middle" font-family="Arial, helvetica, sans-serif" transform="matrix(1,0,0,1,45,11.9)"><tspan id="v-98" class="v-line" dy="0em">Goal</tspan></text></g></g><g model-id="e1270a5e-3c20-4be9-8097-66f6ed8502cd" id="j_14" class="joint-cell joint-type-istar joint-type-istar-task joint-element joint-theme-default" data-type="istar.Task" fill="#ffffff" stroke="none" transform="translate(700,129)" style="cursor: move;"><g class="rotatable" id="v-101" style="cursor: move;"><g class="scalable" transform="scale(0.7307692307692307,1)" style="cursor: move;"><polygon id="v-102" points="0,18 15,0 115,0 130,18 115,36 15,36" fill="rgb(205,254,205)" stroke="black" stroke-width="2" width="130" height="36"/></g><text id="v-103" font-size="12" xml:space="preserve" y="0.8em" font-weight="bold" text-anchor="middle" fill="#000000" font-family="Arial, helvetica, sans-serif" transform="matrix(1,0,0,1,47.5,12.4)"><tspan id="v-104" class="v-line" dy="0em">Task</tspan></text></g></g><g model-id="60d0943c-169e-41ff-85ed-e19360456863" id="j_15" class="joint-cell joint-type-istar joint-type-istar-task joint-element joint-theme-default" data-type="istar.Task" fill="#ffffff" stroke="none" transform="translate(634,209)" style="cursor: move;"><g class="rotatable" id="v-107" style="cursor: move;"><g class="scalable" transform="scale(0.7307692307692307,1)" style="cursor: move;"><polygon id="v-108" points="0,18 15,0 115,0 130,18 115,36 15,36" fill="rgb(205,254,205)" stroke="black" stroke-width="2" width="130" height="36"/></g><text id="v-109" font-size="12" xml:space="preserve" y="0.8em" font-weight="bold" text-anchor="middle" fill="#000000" font-family="Arial, helvetica, sans-serif" transform="matrix(1,0,0,1,47.5,12.4)"><tspan id="v-110" class="v-line" dy="0em">Task</tspan></text></g></g><g model-id="0a28f23e-2008-43b3-9e63-025bdfd5f30c" id="j_16" class="joint-cell joint-type-istar joint-type-istar-task joint-element joint-theme-default" data-type="istar.Task" fill="#ffffff" stroke="none" transform="translate(768,207)" style="cursor: move;"><g class="rotatable" id="v-113" style="cursor: move;"><g class="scalable" transform="scale(0.7307692307692307,1)" style="cursor: move;"><polygon id="v-114" points="0,18 15,0 115,0 130,18 115,36 15,36" fill="rgb(205,254,205)" stroke="black" stroke-width="2" width="130" height="36"/></g><text id="v-115" font-size="12" xml:space="preserve" y="0.8em" font-weight="bold" text-anchor="middle" fill="#000000" font-family="Arial, helvetica, sans-serif" transform="matrix(1,0,0,1,47.5,12.4)"><tspan id="v-116" class="v-line" dy="0em">Task</tspan></text></g></g><g model-id="df52f053-20a2-4bdf-8e23-e8c53a8ce306" id="j_17" class="joint-cell joint-type-istar joint-type-istar-quality joint-element joint-theme-default" data-type="istar.Quality" fill="#ffffff" stroke="none" transform="translate(572,322)" style="cursor: move;"><g class="rotatable" id="v-119" style="cursor: move;"><g class="scalable" transform="scale(0.7852377172326537,1.0380876530855685)" style="cursor: move;"><path id="v-120" d="m 60.637955,-4.0358 c 17.5174,2.2042 29.9953,-10.69554 41.892705,-4.7858 22.34142,10.8714 11.2203,43.7743 -2.25,47.7322 -8.276505,2.9084 -13.960205,5.1934 -46.142805,-2.1786 -6.7454,-2.2317 -28.2652,6.0799 -35.4643,4.7143 C 9.072156,39.4809 6.491756,33.7693 3.744956,28.482 c -6.3069,-15.1266 -2.5738,-28.0439 7.981099,-34.7856 10.5549,-6.74179 27.9316,-7.30796 48.9119,2.2678 z" fill="rgb(205,254,205)" stroke="black" stroke-width="2"/></g><text id="v-121" font-size="12" xml:space="preserve" y="0.8em" font-weight="bold" text-anchor="middle" fill="#000000" font-family="Arial, helvetica, sans-serif" transform="matrix(1,0,0,1,45.5,11.4)"><tspan id="v-122" class="v-line" dy="0em">Quality</tspan></text></g></g><g model-id="3ff6395e-86ec-4661-ba13-c0493331303b" id="j_18" class="joint-cell joint-type-istar joint-type-istar-quality joint-element joint-theme-default" data-type="istar.Quality" fill="#ffffff" stroke="none" transform="translate(831,317)" style="cursor: move;"><g class="rotatable" id="v-125" style="cursor: move;"><g class="scalable" transform="scale(0.7852377172326537,1.0380876530855685)" style="cursor: move;"><path id="v-126" d="m 60.637955,-4.0358 c 17.5174,2.2042 29.9953,-10.69554 41.892705,-4.7858 22.34142,10.8714 11.2203,43.7743 -2.25,47.7322 -8.276505,2.9084 -13.960205,5.1934 -46.142805,-2.1786 -6.7454,-2.2317 -28.2652,6.0799 -35.4643,4.7143 C 9.072156,39.4809 6.491756,33.7693 3.744956,28.482 c -6.3069,-15.1266 -2.5738,-28.0439 7.981099,-34.7856 10.5549,-6.74179 27.9316,-7.30796 48.9119,2.2678 z" fill="rgb(205,254,205)" stroke="black" stroke-width="2"/></g><text id="v-127" font-size="12" xml:space="preserve" y="0.8em" font-weight="bold" text-anchor="middle" fill="#000000" font-family="Arial, helvetica, sans-serif" transform="matrix(1,0,0,1,45.5,11.4)"><tspan id="v-128" class="v-line" dy="0em">Quality</tspan></text></g></g><g model-id="85940cf3-6d49-4270-9b00-51696b5790f5" id="j_19" class="joint-cell joint-type-istar joint-type-istar-quality joint-element joint-theme-default" data-type="istar.Quality" fill="#ffffff" stroke="none" transform="translate(699,455)" style="cursor: move;"><g class="rotatable" id="v-131" style="cursor: move;"><g class="scalable" transform="scale(0.7852377172326537,1.0380876530855685)" style="cursor: move;"><path id="v-132" d="m 60.637955,-4.0358 c 17.5174,2.2042 29.9953,-10.69554 41.892705,-4.7858 22.34142,10.8714 11.2203,43.7743 -2.25,47.7322 -8.276505,2.9084 -13.960205,5.1934 -46.142805,-2.1786 -6.7454,-2.2317 -28.2652,6.0799 -35.4643,4.7143 C 9.072156,39.4809 6.491756,33.7693 3.744956,28.482 c -6.3069,-15.1266 -2.5738,-28.0439 7.981099,-34.7856 10.5549,-6.74179 27.9316,-7.30796 48.9119,2.2678 z" fill="rgb(205,254,205)" stroke="black" stroke-width="2"/></g><text id="v-133" font-size="12" xml:space="preserve" y="0.8em" font-weight="bold" text-anchor="middle" fill="#000000" font-family="Arial, helvetica, sans-serif" transform="matrix(1,0,0,1,45.5,11.4)"><tspan id="v-134" class="v-line" dy="0em">Quality</tspan></text></g></g><g model-id="54c01821-aa4d-4bd0-9fdf-6ddaa25c299f" id="j_20" class="joint-cell joint-type-istar joint-type-istar-resource joint-element joint-theme-default" data-type="istar.Resource" fill="#ffffff" stroke="none" transform="translate(922,233)" style="cursor: move;"><g class="rotatable" id="v-137" style="cursor: move;"><g class="scalable" transform="scale(0.6923076923076923,1.1666666666666667)" style="cursor: move;"><rect id="v-138" fill="rgb(205,254,205)" stroke="black" stroke-width="2" width="130" height="30" rx="0"/></g><text id="v-139" font-size="12" xml:space="preserve" y="0.8em" font-weight="bold" fill="#000000" text-anchor="middle" font-family="Arial, helvetica, sans-serif" transform="matrix(1,0,0,1,45,11.9)"><tspan id="v-140" class="v-line" dy="0em">Resource</tspan></text></g></g><g model-id="1ecba4f1-f873-466c-8074-092f612d5fed" id="j_21" class="joint-cell joint-type-istar joint-type-istar-quality joint-element joint-theme-default" data-type="istar.Quality" fill="#ffffff" stroke="none" transform="translate(860,101)" style="cursor: move;"><g class="rotatable" id="v-143" style="cursor: move;"><g class="scalable" transform="scale(0.7852377172326537,1.0380876530855685)" style="cursor: move;"><path id="v-144" d="m 60.637955,-4.0358 c 17.5174,2.2042 29.9953,-10.69554 41.892705,-4.7858 22.34142,10.8714 11.2203,43.7743 -2.25,47.7322 -8.276505,2.9084 -13.960205,5.1934 -46.142805,-2.1786 -6.7454,-2.2317 -28.2652,6.0799 -35.4643,4.7143 C 9.072156,39.4809 6.491756,33.7693 3.744956,28.482 c -6.3069,-15.1266 -2.5738,-28.0439 7.981099,-34.7856 10.5549,-6.74179 27.9316,-7.30796 48.9119,2.2678 z" fill="rgb(205,254,205)" stroke="black" stroke-width="2"/></g><text id="v-145" font-size="12" xml:space="preserve" y="0.8em" font-weight="bold" text-anchor="middle" fill="#000000" font-family="Arial, helvetica, sans-serif" transform="matrix(1,0,0,1,45.5,11.4)"><tspan id="v-146" class="v-line" dy="0em">Quality</tspan></text></g></g><g model-id="fd083df6-87fc-4423-b25c-3291a1bf9aa3" id="j_22" class="joint-cell joint-type-istar joint-type-istar-goal joint-element joint-theme-default" data-type="istar.Goal" fill="#ffffff" stroke="none" transform="translate(12,178)" style="cursor: move;"><g class="rotatable" id="v-149" style="cursor: move;"><g class="scalable" transform="scale(0.6923076923076923,1.1666666666666667)" style="cursor: move;"><rect id="v-150" fill="rgb(205,254,205)" stroke="black" stroke-width="2" width="130" height="30" rx="20"/></g><text id="v-151" font-size="12" xml:space="preserve" y="0.8em" font-weight="bold" fill="#000000" text-anchor="middle" font-family="Arial, helvetica, sans-serif" transform="matrix(1,0,0,1,45,11.9)"><tspan id="v-152" class="v-line" dy="0em">Dependum</tspan></text></g></g><g model-id="9934417c-7c57-4272-837d-fb75b6eff101" id="j_25" class="joint-cell joint-type-istar joint-type-istar-quality joint-element joint-theme-default" data-type="istar.Quality" fill="#ffffff" stroke="none" transform="translate(181,332)" style="cursor: move;"><g class="rotatable" id="v-181" style="cursor: move;"><g class="scalable" transform="scale(0.7852377172326537,1.0380876530855685)" style="cursor: move;"><path id="v-182" d="m 60.637955,-4.0358 c 17.5174,2.2042 29.9953,-10.69554 41.892705,-4.7858 22.34142,10.8714 11.2203,43.7743 -2.25,47.7322 -8.276505,2.9084 -13.960205,5.1934 -46.142805,-2.1786 -6.7454,-2.2317 -28.2652,6.0799 -35.4643,4.7143 C 9.072156,39.4809 6.491756,33.7693 3.744956,28.482 c -6.3069,-15.1266 -2.5738,-28.0439 7.981099,-34.7856 10.5549,-6.74179 27.9316,-7.30796 48.9119,2.2678 z" fill="rgb(205,254,205)" stroke="black" stroke-width="2"/></g><text id="v-183" font-size="12" xml:space="preserve" y="0.8em" font-weight="bold" text-anchor="middle" fill="#000000" font-family="Arial, helvetica, sans-serif" transform="matrix(1,0,0,1,45.5,11.4)"><tspan id="v-184" class="v-line" dy="0em">Dependum</tspan></text></g></g><g model-id="81fe40dc-2380-47c0-92ab-1e7281dc020c" id="j_28" class="joint-cell joint-type-istar joint-type-istar-task joint-element joint-theme-default" data-type="istar.Task" fill="#ffffff" stroke="none" transform="translate(379,333)" style="cursor: move;"><g class="rotatable" id="v-213" style="cursor: move;"><g class="scalable" transform="scale(0.7307692307692307,1)" style="cursor: move;"><polygon id="v-214" points="0,18 15,0 115,0 130,18 115,36 15,36" fill="rgb(205,254,205)" stroke="black" stroke-width="2" width="130" height="36"/></g><text id="v-215" font-size="12" xml:space="preserve" y="0.8em" font-weight="bold" text-anchor="middle" fill="#000000" font-family="Arial, helvetica, sans-serif" transform="matrix(1,0,0,1,47.5,12.4)"><tspan id="v-216" class="v-line" dy="0em">Dependum</tspan></text></g></g><g model-id="7b339194-6020-4c2b-86e5-cd07ab9f725d" id="j_31" class="joint-cell joint-type-istar joint-type-istar-resource joint-element joint-theme-default" data-type="istar.Resource" fill="#ffffff" stroke="none" transform="translate(453,169)" style="cursor: move;"><g class="rotatable" id="v-244" style="cursor: move;"><g class="scalable" transform="scale(0.6923076923076923,1.1666666666666667)" style="cursor: move;"><rect id="v-245" fill="rgb(205,254,205)" stroke="black" stroke-width="2" width="130" height="30" rx="0"/></g><text id="v-246" font-size="12" xml:space="preserve" y="0.8em" font-weight="bold" fill="#000000" text-anchor="middle" font-family="Arial, helvetica, sans-serif" transform="matrix(1,0,0,1,45,11.9)"><tspan id="v-247" class="v-line" dy="0em">Dependum</tspan></text></g></g><g model-id="1e479d26-7cd3-43f4-9a77-899075ee5576" id="j_34" class="joint-cell joint-type-istar joint-type-istar-orrefinementlink joint-link joint-theme-default" data-type="istar.OrRefinementLink" display="none" style="cursor: move;"><path class="connection" stroke="black" d="M 348 199 336 151" id="v-279" fill="none"/><path class="marker-source" fill="black" stroke="black" d="" id="v-277" transform="translate(348,199) scale(1,1) rotate(-103.5704345703125)"/><path class="marker-target" fill="black" stroke="black" d="M 15 0 L 5 5 L 15 10 z" id="v-278" stroke-width="2" transform="translate(337.68722345006097,134.9663878382799) scale(1,1) rotate(76.42956542968753)"/><path class="connection-wrap" d="M 348 199 336 151" id="v-280" fill="none"/><g class="labels" style="cursor: move;"/><g class="marker-vertices" style="cursor: move; display: none;"/><g class="marker-arrowheads" style="cursor: move; display: none;"><g id="v-275" transform="translate(348,199) scale(0.5,0.5) rotate(-103.5704345703125)" style="cursor: move;"/><g id="v-276" transform="translate(334,141) scale(0.5,0.5) rotate(76.42956542968753)" style="cursor: move;"/></g><g class="link-tools" style="cursor: move; display: none;"><g class="link-tool" id="v-274" transform="translate(343.1492919921875, 179.59715270996094) scale(.5)" style="cursor: pointer;"><g class="tool-remove" event="remove" style="cursor: pointer;"><circle r="11"/><path transform="scale(.8) translate(-16, -16)" d="M24.778,21.419 19.276,15.917 24.777,10.415 21.949,7.585 16.447,13.087 10.945,7.585 8.117,10.415 13.618,15.917 8.116,21.419 10.946,24.248 16.447,18.746 21.948,24.248z"/><title>Remove link.</title></g><g class="tool-options" event="link:options" style="cursor: pointer;"><circle r="11" transform="translate(25)"/><path fill="white" transform="scale(.55) translate(29, -16)" d="M31.229,17.736c0.064-0.571,0.104-1.148,0.104-1.736s-0.04-1.166-0.104-1.737l-4.377-1.557c-0.218-0.716-0.504-1.401-0.851-2.05l1.993-4.192c-0.725-0.91-1.549-1.734-2.458-2.459l-4.193,1.994c-0.647-0.347-1.334-0.632-2.049-0.849l-1.558-4.378C17.165,0.708,16.588,0.667,16,0.667s-1.166,0.041-1.737,0.105L12.707,5.15c-0.716,0.217-1.401,0.502-2.05,0.849L6.464,4.005C5.554,4.73,4.73,5.554,4.005,6.464l1.994,4.192c-0.347,0.648-0.632,1.334-0.849,2.05l-4.378,1.557C0.708,14.834,0.667,15.412,0.667,16s0.041,1.165,0.105,1.736l4.378,1.558c0.217,0.715,0.502,1.401,0.849,2.049l-1.994,4.193c0.725,0.909,1.549,1.733,2.459,2.458l4.192-1.993c0.648,0.347,1.334,0.633,2.05,0.851l1.557,4.377c0.571,0.064,1.148,0.104,1.737,0.104c0.588,0,1.165-0.04,1.736-0.104l1.558-4.377c0.715-0.218,1.399-0.504,2.049-0.851l4.193,1.993c0.909-0.725,1.733-1.549,2.458-2.458l-1.993-4.193c0.347-0.647,0.633-1.334,0.851-2.049L31.229,17.736zM16,20.871c-2.69,0-4.872-2.182-4.872-4.871c0-2.69,2.182-4.872,4.872-4.872c2.689,0,4.871,2.182,4.871,4.872C20.871,18.689,18.689,20.871,16,20.871z"/><title>Link options.</title></g></g></g></g><g model-id="3497c04a-6e04-467e-9d07-3650f1af2a3b" id="j_35" class="joint-cell joint-type-istar joint-type-istar-isalink joint-link joint-theme-default" data-type="istar.IsALink" style="cursor: move;"><path class="connection" stroke="black" d="M 263 91 546 56"/><path class="marker-source" fill="black" stroke="black" d="" id="v-289" transform="translate(263,91) scale(1,1) rotate(-7.125016212463365)"/><path class="marker-target" fill="none" stroke="black" d="M 10 0 L 5 5 L 10 5 M 5 5 L 10 10" id="v-290" stroke-width="1.2" transform="translate(556.5815447809771,59.34121432417311) scale(1,1) rotate(-187.12501525878903)"/><path class="connection-wrap" d="M 263 91 546 56"/><g class="labels" style="cursor: move;"><g class="label" id="v-285" label-idx="0" cursor="default" transform="translate(404.5, 73.5)" style="cursor: move;"><rect id="v-287" fill="#ffffff" rx="3" ry="3" width="22.765625" height="16" transform="rotate(-7.086895410073673) translate(-12,-8)"/><text id="v-286" font-size="14" xml:space="preserve" y="0.8em" text-anchor="middle" fill="#000000" pointer-events="none" font-weight="400" transform="rotate(-7.086895410073673) translate(0,-8)"><tspan id="v-288" class="v-line" dy="0em">is-a</tspan></text></g></g><g class="marker-vertices" style="cursor: move; display: none;"/><g class="marker-arrowheads" style="cursor: move; display: none;"><g id="v-282" transform="translate(263,91) scale(1,1) rotate(-7.125016212463365)" style="cursor: move;"/><g id="v-283" transform="translate(551,55) scale(1,1) rotate(-187.12501525878903)" style="cursor: move;"/></g><g class="link-tools" style="cursor: move; display: none;"><g class="link-tool" id="v-281" transform="translate(302.69757080078125, 86.09040832519531) " style="cursor: pointer;"><g class="tool-remove" event="remove" style="cursor: pointer;"><circle r="11"/><path transform="scale(.8) translate(-16, -16)" d="M24.778,21.419 19.276,15.917 24.777,10.415 21.949,7.585 16.447,13.087 10.945,7.585 8.117,10.415 13.618,15.917 8.116,21.419 10.946,24.248 16.447,18.746 21.948,24.248z"/><title>Remove link.</title></g><g class="tool-options" event="link:options" style="cursor: pointer;"><circle r="11" transform="translate(25)"/><path fill="white" transform="scale(.55) translate(29, -16)" d="M31.229,17.736c0.064-0.571,0.104-1.148,0.104-1.736s-0.04-1.166-0.104-1.737l-4.377-1.557c-0.218-0.716-0.504-1.401-0.851-2.05l1.993-4.192c-0.725-0.91-1.549-1.734-2.458-2.459l-4.193,1.994c-0.647-0.347-1.334-0.632-2.049-0.849l-1.558-4.378C17.165,0.708,16.588,0.667,16,0.667s-1.166,0.041-1.737,0.105L12.707,5.15c-0.716,0.217-1.401,0.502-2.05,0.849L6.464,4.005C5.554,4.73,4.73,5.554,4.005,6.464l1.994,4.192c-0.347,0.648-0.632,1.334-0.849,2.05l-4.378,1.557C0.708,14.834,0.667,15.412,0.667,16s0.041,1.165,0.105,1.736l4.378,1.558c0.217,0.715,0.502,1.401,0.849,2.049l-1.994,4.193c0.725,0.909,1.549,1.733,2.459,2.458l4.192-1.993c0.648,0.347,1.334,0.633,2.05,0.851l1.557,4.377c0.571,0.064,1.148,0.104,1.737,0.104c0.588,0,1.165-0.04,1.736-0.104l1.558-4.377c0.715-0.218,1.399-0.504,2.049-0.851l4.193,1.993c0.909-0.725,1.733-1.549,2.458-2.458l-1.993-4.193c0.347-0.647,0.633-1.334,0.851-2.049L31.229,17.736zM16,20.871c-2.69,0-4.872-2.182-4.872-4.871c0-2.69,2.182-4.872,4.872-4.872c2.689,0,4.871,2.182,4.871,4.872C20.871,18.689,18.689,20.871,16,20.871z"/><title>Link options.</title></g></g></g></g><g model-id="11577c20-dc0b-4e3b-a125-db2403289d2d" id="j_36" class="joint-cell joint-type-istar joint-type-istar-orrefinementlink joint-link joint-theme-default" data-type="istar.OrRefinementLink" style="cursor: move;"><path class="connection" stroke="black" d="M 747 129 747 91" id="v-296" fill="none"/><path class="marker-source" fill="black" stroke="black" d="" id="v-294" transform="translate(747,129) scale(1,1) rotate(-90)"/><path class="marker-target" fill="black" stroke="black" d="M 15 0 L 5 5 L 15 10 z" id="v-295" stroke-width="2" transform="translate(752,76) scale(1,1) rotate(-270)"/><path class="connection-wrap" d="M 747 129 747 91" id="v-297" fill="none"/><g class="labels" style="cursor: move;"/><g class="marker-vertices" style="cursor: move; display: none;"/><g class="marker-arrowheads" style="cursor: move; display: none;"><g id="v-292" transform="translate(747,129) scale(0.5,0.5) rotate(-90)" style="cursor: move;"/><g id="v-293" transform="translate(747,81) scale(0.5,0.5) rotate(-270)" style="cursor: move;"/></g><g class="link-tools" style="cursor: move; display: none;"><g class="link-tool" id="v-291" transform="translate(747, 109) scale(.5)" style="cursor: pointer;"><g class="tool-remove" event="remove" style="cursor: pointer;"><circle r="11"/><path transform="scale(.8) translate(-16, -16)" d="M24.778,21.419 19.276,15.917 24.777,10.415 21.949,7.585 16.447,13.087 10.945,7.585 8.117,10.415 13.618,15.917 8.116,21.419 10.946,24.248 16.447,18.746 21.948,24.248z"/><title>Remove link.</title></g><g class="tool-options" event="link:options" style="cursor: pointer;"><circle r="11" transform="translate(25)"/><path fill="white" transform="scale(.55) translate(29, -16)" d="M31.229,17.736c0.064-0.571,0.104-1.148,0.104-1.736s-0.04-1.166-0.104-1.737l-4.377-1.557c-0.218-0.716-0.504-1.401-0.851-2.05l1.993-4.192c-0.725-0.91-1.549-1.734-2.458-2.459l-4.193,1.994c-0.647-0.347-1.334-0.632-2.049-0.849l-1.558-4.378C17.165,0.708,16.588,0.667,16,0.667s-1.166,0.041-1.737,0.105L12.707,5.15c-0.716,0.217-1.401,0.502-2.05,0.849L6.464,4.005C5.554,4.73,4.73,5.554,4.005,6.464l1.994,4.192c-0.347,0.648-0.632,1.334-0.849,2.05l-4.378,1.557C0.708,14.834,0.667,15.412,0.667,16s0.041,1.165,0.105,1.736l4.378,1.558c0.217,0.715,0.502,1.401,0.849,2.049l-1.994,4.193c0.725,0.909,1.549,1.733,2.459,2.458l4.192-1.993c0.648,0.347,1.334,0.633,2.05,0.851l1.557,4.377c0.571,0.064,1.148,0.104,1.737,0.104c0.588,0,1.165-0.04,1.736-0.104l1.558-4.377c0.715-0.218,1.399-0.504,2.049-0.851l4.193,1.993c0.909-0.725,1.733-1.549,2.458-2.458l-1.993-4.193c0.347-0.647,0.633-1.334,0.851-2.049L31.229,17.736zM16,20.871c-2.69,0-4.872-2.182-4.872-4.871c0-2.69,2.182-4.872,4.872-4.872c2.689,0,4.871,2.182,4.871,4.872C20.871,18.689,18.689,20.871,16,20.871z"/><title>Link options.</title></g></g></g></g><g model-id="2a9705e2-fa9c-4a98-b901-bde6de720ec7" id="j_37" class="joint-cell joint-type-istar joint-type-istar-andrefinementlink joint-link joint-theme-default" data-type="istar.AndRefinementLink" style="cursor: move;"><path class="connection" stroke="black" d="M 696 209 727 173" id="v-303" fill="none"/><path class="marker-source" fill="black" stroke="black" d="" id="v-301" transform="translate(696,209) scale(1,1) rotate(-49.93921661376952)"/><path class="marker-target" fill="black" stroke="black" d="M 15 0 L 15 8 M 15 4 L 5 4 " id="v-302" stroke-width="1" transform="translate(739.2794307055866,163.74759271561024) scale(1,1) rotate(-229.93920898437503)"/><path class="connection-wrap" d="M 696 209 727 173" id="v-304" fill="none"/><g class="labels" style="cursor: move;"/><g class="marker-vertices" style="cursor: move; display: none;"/><g class="marker-arrowheads" style="cursor: move; display: none;"><g id="v-299" transform="translate(696,209) scale(0.5,0.5) rotate(-49.93921661376952)" style="cursor: move;"/><g id="v-300" transform="translate(733,165) scale(0.5,0.5) rotate(-229.93920898437503)" style="cursor: move;"/></g><g class="link-tools" style="cursor: move; display: none;"><g class="link-tool" id="v-298" transform="translate(709.0504760742188, 193.84461975097656) scale(.5)" style="cursor: pointer;"><g class="tool-remove" event="remove" style="cursor: pointer;"><circle r="11"/><path transform="scale(.8) translate(-16, -16)" d="M24.778,21.419 19.276,15.917 24.777,10.415 21.949,7.585 16.447,13.087 10.945,7.585 8.117,10.415 13.618,15.917 8.116,21.419 10.946,24.248 16.447,18.746 21.948,24.248z"/><title>Remove link.</title></g><g class="tool-options" event="link:options" style="cursor: pointer;"><circle r="11" transform="translate(25)"/><path fill="white" transform="scale(.55) translate(29, -16)" d="M31.229,17.736c0.064-0.571,0.104-1.148,0.104-1.736s-0.04-1.166-0.104-1.737l-4.377-1.557c-0.218-0.716-0.504-1.401-0.851-2.05l1.993-4.192c-0.725-0.91-1.549-1.734-2.458-2.459l-4.193,1.994c-0.647-0.347-1.334-0.632-2.049-0.849l-1.558-4.378C17.165,0.708,16.588,0.667,16,0.667s-1.166,0.041-1.737,0.105L12.707,5.15c-0.716,0.217-1.401,0.502-2.05,0.849L6.464,4.005C5.554,4.73,4.73,5.554,4.005,6.464l1.994,4.192c-0.347,0.648-0.632,1.334-0.849,2.05l-4.378,1.557C0.708,14.834,0.667,15.412,0.667,16s0.041,1.165,0.105,1.736l4.378,1.558c0.217,0.715,0.502,1.401,0.849,2.049l-1.994,4.193c0.725,0.909,1.549,1.733,2.459,2.458l4.192-1.993c0.648,0.347,1.334,0.633,2.05,0.851l1.557,4.377c0.571,0.064,1.148,0.104,1.737,0.104c0.588,0,1.165-0.04,1.736-0.104l1.558-4.377c0.715-0.218,1.399-0.504,2.049-0.851l4.193,1.993c0.909-0.725,1.733-1.549,2.458-2.458l-1.993-4.193c0.347-0.647,0.633-1.334,0.851-2.049L31.229,17.736zM16,20.871c-2.69,0-4.872-2.182-4.872-4.871c0-2.69,2.182-4.872,4.872-4.872c2.689,0,4.871,2.182,4.871,4.872C20.871,18.689,18.689,20.871,16,20.871z"/><title>Link options.</title></g></g></g></g><g model-id="0ffbf469-5e67-47fe-ae2a-f84cab7b1076" id="j_38" class="joint-cell joint-type-istar joint-type-istar-andrefinementlink joint-link joint-theme-default" data-type="istar.AndRefinementLink" style="cursor: move;"><path class="connection" stroke="black" d="M 800 207 770 173" id="v-310" fill="none"/><path class="marker-source" fill="black" stroke="black" d="" id="v-308" transform="translate(800,207) scale(1,1) rotate(-131.37850952148438)"/><path class="marker-target" fill="black" stroke="black" d="M 15 0 L 15 8 M 15 4 L 5 4 " id="v-309" stroke-width="1" transform="translate(762.6963073526098,158.60408805277262) scale(1,1) rotate(48.62149047851565)"/><path class="connection-wrap" d="M 800 207 770 173" id="v-311" fill="none"/><g class="labels" style="cursor: move;"/><g class="marker-vertices" style="cursor: move; display: none;"/><g class="marker-arrowheads" style="cursor: move; display: none;"><g id="v-306" transform="translate(800,207) scale(0.5,0.5) rotate(-131.37850952148438)" style="cursor: move;"/><g id="v-307" transform="translate(763,165) scale(0.5,0.5) rotate(48.62149047851565)" style="cursor: move;"/></g><g class="link-tools" style="cursor: move; display: none;"><g class="link-tool" id="v-305" transform="translate(786.767578125, 192.00323486328125) scale(.5)" style="cursor: pointer;"><g class="tool-remove" event="remove" style="cursor: pointer;"><circle r="11"/><path transform="scale(.8) translate(-16, -16)" d="M24.778,21.419 19.276,15.917 24.777,10.415 21.949,7.585 16.447,13.087 10.945,7.585 8.117,10.415 13.618,15.917 8.116,21.419 10.946,24.248 16.447,18.746 21.948,24.248z"/><title>Remove link.</title></g><g class="tool-options" event="link:options" style="cursor: pointer;"><circle r="11" transform="translate(25)"/><path fill="white" transform="scale(.55) translate(29, -16)" d="M31.229,17.736c0.064-0.571,0.104-1.148,0.104-1.736s-0.04-1.166-0.104-1.737l-4.377-1.557c-0.218-0.716-0.504-1.401-0.851-2.05l1.993-4.192c-0.725-0.91-1.549-1.734-2.458-2.459l-4.193,1.994c-0.647-0.347-1.334-0.632-2.049-0.849l-1.558-4.378C17.165,0.708,16.588,0.667,16,0.667s-1.166,0.041-1.737,0.105L12.707,5.15c-0.716,0.217-1.401,0.502-2.05,0.849L6.464,4.005C5.554,4.73,4.73,5.554,4.005,6.464l1.994,4.192c-0.347,0.648-0.632,1.334-0.849,2.05l-4.378,1.557C0.708,14.834,0.667,15.412,0.667,16s0.041,1.165,0.105,1.736l4.378,1.558c0.217,0.715,0.502,1.401,0.849,2.049l-1.994,4.193c0.725,0.909,1.549,1.733,2.459,2.458l4.192-1.993c0.648,0.347,1.334,0.633,2.05,0.851l1.557,4.377c0.571,0.064,1.148,0.104,1.737,0.104c0.588,0,1.165-0.04,1.736-0.104l1.558-4.377c0.715-0.218,1.399-0.504,2.049-0.851l4.193,1.993c0.909-0.725,1.733-1.549,2.458-2.458l-1.993-4.193c0.347-0.647,0.633-1.334,0.851-2.049L31.229,17.736zM16,20.871c-2.69,0-4.872-2.182-4.872-4.871c0-2.69,2.182-4.872,4.872-4.872c2.689,0,4.871,2.182,4.871,4.872C20.871,18.689,18.689,20.871,16,20.871z"/><title>Link options.</title></g></g></g></g><g model-id="8c86b3dd-8a1f-4aae-a13e-b5669c4f7042" id="j_39" class="joint-cell joint-type-istar joint-type-istar-qualificationlink joint-link joint-theme-default" data-type="istar.QualificationLink" style="cursor: move;"><path class="connection" stroke="black" d="M 860 126 795 138" id="v-317" fill="none" stroke-dasharray="10,5"/><path class="marker-source" fill="black" stroke="black" d="" id="v-315" transform="translate(860,126) scale(1,1) rotate(-190.4599151611328)"/><path class="marker-target" fill="black" stroke="black" d="" id="v-316" transform="translate(795,138) scale(1,1) rotate(-10.4599094390869)"/><path class="connection-wrap" d="M 860 126 795 138" id="v-318" fill="none"/><g class="labels" style="cursor: move;"/><g class="marker-vertices" style="cursor: move; display: none;"/><g class="marker-arrowheads" style="cursor: move; display: none;"><g id="v-313" transform="translate(860,126) scale(0.5,0.5) rotate(-190.4599151611328)" style="cursor: move;"/><g id="v-314" transform="translate(795,138) scale(0.5,0.5) rotate(-10.4599094390869)" style="cursor: move;"/></g><g class="link-tools" style="cursor: move; display: none;"><g class="link-tool" id="v-312" transform="translate(840.3323364257812, 129.63095092773438) scale(.5)" style="cursor: pointer;"><g class="tool-remove" event="remove" style="cursor: pointer;"><circle r="11"/><path transform="scale(.8) translate(-16, -16)" d="M24.778,21.419 19.276,15.917 24.777,10.415 21.949,7.585 16.447,13.087 10.945,7.585 8.117,10.415 13.618,15.917 8.116,21.419 10.946,24.248 16.447,18.746 21.948,24.248z"/><title>Remove link.</title></g><g class="tool-options" event="link:options" style="cursor: pointer;"><circle r="11" transform="translate(25)"/><path fill="white" transform="scale(.55) translate(29, -16)" d="M31.229,17.736c0.064-0.571,0.104-1.148,0.104-1.736s-0.04-1.166-0.104-1.737l-4.377-1.557c-0.218-0.716-0.504-1.401-0.851-2.05l1.993-4.192c-0.725-0.91-1.549-1.734-2.458-2.459l-4.193,1.994c-0.647-0.347-1.334-0.632-2.049-0.849l-1.558-4.378C17.165,0.708,16.588,0.667,16,0.667s-1.166,0.041-1.737,0.105L12.707,5.15c-0.716,0.217-1.401,0.502-2.05,0.849L6.464,4.005C5.554,4.73,4.73,5.554,4.005,6.464l1.994,4.192c-0.347,0.648-0.632,1.334-0.849,2.05l-4.378,1.557C0.708,14.834,0.667,15.412,0.667,16s0.041,1.165,0.105,1.736l4.378,1.558c0.217,0.715,0.502,1.401,0.849,2.049l-1.994,4.193c0.725,0.909,1.549,1.733,2.459,2.458l4.192-1.993c0.648,0.347,1.334,0.633,2.05,0.851l1.557,4.377c0.571,0.064,1.148,0.104,1.737,0.104c0.588,0,1.165-0.04,1.736-0.104l1.558-4.377c0.715-0.218,1.399-0.504,2.049-0.851l4.193,1.993c0.909-0.725,1.733-1.549,2.458-2.458l-1.993-4.193c0.347-0.647,0.633-1.334,0.851-2.049L31.229,17.736zM16,20.871c-2.69,0-4.872-2.182-4.872-4.871c0-2.69,2.182-4.872,4.872-4.872c2.689,0,4.871,2.182,4.871,4.872C20.871,18.689,18.689,20.871,16,20.871z"/><title>Link options.</title></g></g></g></g><g model-id="7038acd2-12a7-4588-bbc9-fd298f5190a8" id="j_40" class="joint-cell joint-type-istar joint-type-istar-neededbylink joint-link joint-theme-default" data-type="istar.NeededByLink" style="cursor: move;"><path class="connection" stroke="black" d="M 921 243 871 234" id="v-324" fill="none"/><path class="marker-source" fill="black" stroke="black" d="" id="v-326" transform="translate(921,243) scale(1,1) rotate(-170.21759033203125)"/><circle class="marker-target" fill="black" stroke="black" r="4" id="v-327" d="" transform="translate(866.9418334960938,233.67962646484375) scale(1,1) rotate(9.782409667968807)"/><path class="connection-wrap" d="M 921 243 871 234" id="v-325" fill="none"/><g class="labels" style="cursor: move;"><g class="label" id="v-321" label-idx="0" cursor="default" transform="translate(886, 236.6999969482422)" style="cursor: move;"><rect id="v-323" fill="rgb(220,220,220)" rx="3" ry="3" width="0" height="0" transform="matrix(1,0,0,1,0,0)"/><text id="v-322" text-anchor="middle" font-size="14" fill="#000000" pointer-events="none"/></g></g><g class="marker-vertices" style="cursor: move; display: none;"/><g class="link-tools" style="cursor: move; display: none;"><g class="link-tool" id="v-319" transform="translate(901.3163452148438, 239.45693969726562) scale(.5)" style="cursor: pointer;"><g class="tool-remove" event="remove" style="cursor: pointer;"><circle r="11"/><path transform="scale(.8) translate(-16, -16)" d="M24.778,21.419 19.276,15.917 24.777,10.415 21.949,7.585 16.447,13.087 10.945,7.585 8.117,10.415 13.618,15.917 8.116,21.419 10.946,24.248 16.447,18.746 21.948,24.248z"/><title>Remove link.</title></g><g class="tool-options" event="link:options" style="cursor: pointer;"><circle r="11" transform="translate(25)"/><path fill="white" transform="scale(.55) translate(29, -16)" d="M31.229,17.736c0.064-0.571,0.104-1.148,0.104-1.736s-0.04-1.166-0.104-1.737l-4.377-1.557c-0.218-0.716-0.504-1.401-0.851-2.05l1.993-4.192c-0.725-0.91-1.549-1.734-2.458-2.459l-4.193,1.994c-0.647-0.347-1.334-0.632-2.049-0.849l-1.558-4.378C17.165,0.708,16.588,0.667,16,0.667s-1.166,0.041-1.737,0.105L12.707,5.15c-0.716,0.217-1.401,0.502-2.05,0.849L6.464,4.005C5.554,4.73,4.73,5.554,4.005,6.464l1.994,4.192c-0.347,0.648-0.632,1.334-0.849,2.05l-4.378,1.557C0.708,14.834,0.667,15.412,0.667,16s0.041,1.165,0.105,1.736l4.378,1.558c0.217,0.715,0.502,1.401,0.849,2.049l-1.994,4.193c0.725,0.909,1.549,1.733,2.459,2.458l4.192-1.993c0.648,0.347,1.334,0.633,2.05,0.851l1.557,4.377c0.571,0.064,1.148,0.104,1.737,0.104c0.588,0,1.165-0.04,1.736-0.104l1.558-4.377c0.715-0.218,1.399-0.504,2.049-0.851l4.193,1.993c0.909-0.725,1.733-1.549,2.458-2.458l-1.993-4.193c0.347-0.647,0.633-1.334,0.851-2.049L31.229,17.736zM16,20.871c-2.69,0-4.872-2.182-4.872-4.871c0-2.69,2.182-4.872,4.872-4.872c2.689,0,4.871,2.182,4.871,4.872C20.871,18.689,18.689,20.871,16,20.871z"/><title>Link options.</title></g></g></g></g><g model-id="699c55a3-fe6f-4b5a-965e-fdcbe22025f8" id="j_41" class="joint-cell joint-type-istar joint-type-istar-contributionlink joint-link joint-theme-default" data-type="istar.ContributionLink" style="cursor: move;"><path class="connection" stroke="black" d="M 671 245 639 300" id="v-338" fill="none"/><path class="marker-source" fill="black" stroke="black" d="" id="v-336" transform="translate(671,245) scale(1,1) rotate(-239.96672058105472)"/><path class="marker-target" fill="none" stroke="black" d="M 15 0 L 5 5 L 15 5 M 5 5 L 15 10" id="v-337" stroke-width="1.2" transform="translate(627.1687989027107,310.8261594142271) scale(1,1) rotate(-59.96672058105469)"/><path class="connection-wrap" d="M 671 245 639 300" id="v-339" fill="none"/><g class="labels" style="cursor: move;"><g class="label" id="v-332" label-idx="0" cursor="default" transform="translate(658.2000122070312, 267)" style="cursor: move;"><rect id="v-334" fill="rgb(230,230,230)" rx="3" ry="3" width="31.015625" height="14" transform="matrix(1,0,0,1,-15.3,-7)"/><text id="v-333" font-size="12" xml:space="preserve" y="0.8em" text-anchor="middle" fill="#000000" pointer-events="none" font-weight="bold" font-family="sans-serif" transform="matrix(1,0,0,1,0,-5.6)"><tspan id="v-335" class="v-line" dy="0em">make</tspan></text></g></g><g class="marker-vertices" style="cursor: move; display: none;"/><g class="marker-arrowheads" style="cursor: move; display: none;"><g id="v-329" transform="translate(671,245) scale(0.5,0.5) rotate(-239.96672058105472)" style="cursor: move;"/><g id="v-330" transform="translate(634,309) scale(0.5,0.5) rotate(-59.96672058105469)" style="cursor: move;"/></g><g class="link-tools" style="cursor: move; display: none;"><g class="link-tool" id="v-328" transform="translate(660.942138671875, 262.2869567871094) scale(.5)" style="cursor: pointer;"><g class="tool-remove" event="remove" style="cursor: pointer;"><circle r="11"/><path transform="scale(.8) translate(-16, -16)" d="M24.778,21.419 19.276,15.917 24.777,10.415 21.949,7.585 16.447,13.087 10.945,7.585 8.117,10.415 13.618,15.917 8.116,21.419 10.946,24.248 16.447,18.746 21.948,24.248z"/><title>Remove link.</title></g><g class="tool-options" event="link:options" style="cursor: pointer;"><circle r="11" transform="translate(25)"/><path fill="white" transform="scale(.55) translate(29, -16)" d="M31.229,17.736c0.064-0.571,0.104-1.148,0.104-1.736s-0.04-1.166-0.104-1.737l-4.377-1.557c-0.218-0.716-0.504-1.401-0.851-2.05l1.993-4.192c-0.725-0.91-1.549-1.734-2.458-2.459l-4.193,1.994c-0.647-0.347-1.334-0.632-2.049-0.849l-1.558-4.378C17.165,0.708,16.588,0.667,16,0.667s-1.166,0.041-1.737,0.105L12.707,5.15c-0.716,0.217-1.401,0.502-2.05,0.849L6.464,4.005C5.554,4.73,4.73,5.554,4.005,6.464l1.994,4.192c-0.347,0.648-0.632,1.334-0.849,2.05l-4.378,1.557C0.708,14.834,0.667,15.412,0.667,16s0.041,1.165,0.105,1.736l4.378,1.558c0.217,0.715,0.502,1.401,0.849,2.049l-1.994,4.193c0.725,0.909,1.549,1.733,2.459,2.458l4.192-1.993c0.648,0.347,1.334,0.633,2.05,0.851l1.557,4.377c0.571,0.064,1.148,0.104,1.737,0.104c0.588,0,1.165-0.04,1.736-0.104l1.558-4.377c0.715-0.218,1.399-0.504,2.049-0.851l4.193,1.993c0.909-0.725,1.733-1.549,2.458-2.458l-1.993-4.193c0.347-0.647,0.633-1.334,0.851-2.049L31.229,17.736zM16,20.871c-2.69,0-4.872-2.182-4.872-4.871c0-2.69,2.182-4.872,4.872-4.872c2.689,0,4.871,2.182,4.871,4.872C20.871,18.689,18.689,20.871,16,20.871z"/><title>Link options.</title></g></g></g></g><g model-id="5d2abaa5-b25e-4a68-87d4-8df17b530237" id="j_42" class="joint-cell joint-type-istar joint-type-istar-contributionlink joint-link joint-theme-default" data-type="istar.ContributionLink" style="cursor: move;"><path class="connection" stroke="black" d="M 826 243 855 295" id="v-351" fill="none"/><path class="marker-source" fill="black" stroke="black" d="" id="v-349" transform="translate(826,243) scale(1,1) rotate(60.86572265625)"/><path class="marker-target" fill="none" stroke="black" d="M 15 0 L 5 5 L 15 5 M 5 5 L 15 10" id="v-350" stroke-width="1.2" transform="translate(858.0669125589966,310.80170004568276) scale(1,1) rotate(-119.13429260253906)"/><path class="connection-wrap" d="M 826 243 855 295" id="v-352" fill="none"/><g class="labels" style="cursor: move;"><g class="label" id="v-345" label-idx="0" cursor="default" transform="translate(837.5999755859375, 263.79998779296875)" style="cursor: move;"><rect id="v-347" fill="rgb(230,230,230)" rx="3" ry="3" width="33.34375" height="14" transform="matrix(1,0,0,1,-16,-7)"/><text id="v-346" font-size="12" xml:space="preserve" y="0.8em" text-anchor="middle" fill="#000000" pointer-events="none" font-weight="bold" font-family="sans-serif" transform="matrix(1,0,0,1,0,-5.6)"><tspan id="v-348" class="v-line" dy="0em">break</tspan></text></g></g><g class="marker-vertices" style="cursor: move; display: none;"/><g class="marker-arrowheads" style="cursor: move; display: none;"><g id="v-342" transform="translate(826,243) scale(0.5,0.5) rotate(60.86572265625)" style="cursor: move;"/><g id="v-343" transform="translate(860,304) scale(0.5,0.5) rotate(-119.13429260253906)" style="cursor: move;"/></g><g class="link-tools" style="cursor: move; display: none;"><g class="link-tool" id="v-341" transform="translate(835.7413940429688, 260.46728515625) scale(.5)" style="cursor: pointer;"><g class="tool-remove" event="remove" style="cursor: pointer;"><circle r="11"/><path transform="scale(.8) translate(-16, -16)" d="M24.778,21.419 19.276,15.917 24.777,10.415 21.949,7.585 16.447,13.087 10.945,7.585 8.117,10.415 13.618,15.917 8.116,21.419 10.946,24.248 16.447,18.746 21.948,24.248z"/><title>Remove link.</title></g><g class="tool-options" event="link:options" style="cursor: pointer;"><circle r="11" transform="translate(25)"/><path fill="white" transform="scale(.55) translate(29, -16)" d="M31.229,17.736c0.064-0.571,0.104-1.148,0.104-1.736s-0.04-1.166-0.104-1.737l-4.377-1.557c-0.218-0.716-0.504-1.401-0.851-2.05l1.993-4.192c-0.725-0.91-1.549-1.734-2.458-2.459l-4.193,1.994c-0.647-0.347-1.334-0.632-2.049-0.849l-1.558-4.378C17.165,0.708,16.588,0.667,16,0.667s-1.166,0.041-1.737,0.105L12.707,5.15c-0.716,0.217-1.401,0.502-2.05,0.849L6.464,4.005C5.554,4.73,4.73,5.554,4.005,6.464l1.994,4.192c-0.347,0.648-0.632,1.334-0.849,2.05l-4.378,1.557C0.708,14.834,0.667,15.412,0.667,16s0.041,1.165,0.105,1.736l4.378,1.558c0.217,0.715,0.502,1.401,0.849,2.049l-1.994,4.193c0.725,0.909,1.549,1.733,2.459,2.458l4.192-1.993c0.648,0.347,1.334,0.633,2.05,0.851l1.557,4.377c0.571,0.064,1.148,0.104,1.737,0.104c0.588,0,1.165-0.04,1.736-0.104l1.558-4.377c0.715-0.218,1.399-0.504,2.049-0.851l4.193,1.993c0.909-0.725,1.733-1.549,2.458-2.458l-1.993-4.193c0.347-0.647,0.633-1.334,0.851-2.049L31.229,17.736zM16,20.871c-2.69,0-4.872-2.182-4.872-4.871c0-2.69,2.182-4.872,4.872-4.872c2.689,0,4.871,2.182,4.871,4.872C20.871,18.689,18.689,20.871,16,20.871z"/><title>Link options.</title></g></g></g></g><g model-id="553b2f3d-e77a-4f2f-962f-1aff3c11345f" id="j_44" class="joint-cell joint-type-istar joint-type-istar-contributionlink joint-link joint-theme-default" data-type="istar.ContributionLink" style="cursor: move;"><path class="connection" stroke="black" d="M 849 361 779 435" id="v-377" fill="none"/><path class="marker-source" fill="black" stroke="black" d="" id="v-375" transform="translate(849,361) scale(1,1) rotate(-226.45021057128906)"/><path class="marker-target" fill="none" stroke="black" d="M 15 0 L 5 5 L 15 5 M 5 5 L 15 10" id="v-376" stroke-width="1.2" transform="translate(764.9312203366133,442.17896580173317) scale(1,1) rotate(-46.450214385986335)"/><path class="connection-wrap" d="M 849 361 779 435" id="v-378" fill="none"/><g class="labels" style="cursor: move;"><g class="label" id="v-371" label-idx="0" cursor="default" transform="translate(821, 390.6000061035156)" style="cursor: move;"><rect id="v-373" fill="rgb(230,230,230)" rx="3" ry="3" width="25.328125" height="14" transform="matrix(1,0,0,1,-12.3,-7)"/><text id="v-372" font-size="12" xml:space="preserve" y="0.8em" text-anchor="middle" fill="#000000" pointer-events="none" font-weight="bold" font-family="sans-serif" transform="matrix(1,0,0,1,0,-5.6)"><tspan id="v-374" class="v-line" dy="0em">help</tspan></text></g></g><g class="marker-vertices" style="cursor: move; display: none;"/><g class="marker-arrowheads" style="cursor: move; display: none;"><g id="v-368" transform="translate(849,361) scale(1,1) rotate(-226.45021057128906)" style="cursor: move;"/><g id="v-369" transform="translate(772,442) scale(1,1) rotate(-46.450214385986335)" style="cursor: move;"/></g><g class="link-tools" style="cursor: move; display: none;"><g class="link-tool" id="v-367" transform="translate(821.5120239257812, 390.0587158203125) " style="cursor: pointer;"><g class="tool-remove" event="remove" style="cursor: pointer;"><circle r="11"/><path transform="scale(.8) translate(-16, -16)" d="M24.778,21.419 19.276,15.917 24.777,10.415 21.949,7.585 16.447,13.087 10.945,7.585 8.117,10.415 13.618,15.917 8.116,21.419 10.946,24.248 16.447,18.746 21.948,24.248z"/><title>Remove link.</title></g><g class="tool-options" event="link:options" style="cursor: pointer;"><circle r="11" transform="translate(25)"/><path fill="white" transform="scale(.55) translate(29, -16)" d="M31.229,17.736c0.064-0.571,0.104-1.148,0.104-1.736s-0.04-1.166-0.104-1.737l-4.377-1.557c-0.218-0.716-0.504-1.401-0.851-2.05l1.993-4.192c-0.725-0.91-1.549-1.734-2.458-2.459l-4.193,1.994c-0.647-0.347-1.334-0.632-2.049-0.849l-1.558-4.378C17.165,0.708,16.588,0.667,16,0.667s-1.166,0.041-1.737,0.105L12.707,5.15c-0.716,0.217-1.401,0.502-2.05,0.849L6.464,4.005C5.554,4.73,4.73,5.554,4.005,6.464l1.994,4.192c-0.347,0.648-0.632,1.334-0.849,2.05l-4.378,1.557C0.708,14.834,0.667,15.412,0.667,16s0.041,1.165,0.105,1.736l4.378,1.558c0.217,0.715,0.502,1.401,0.849,2.049l-1.994,4.193c0.725,0.909,1.549,1.733,2.459,2.458l4.192-1.993c0.648,0.347,1.334,0.633,2.05,0.851l1.557,4.377c0.571,0.064,1.148,0.104,1.737,0.104c0.588,0,1.165-0.04,1.736-0.104l1.558-4.377c0.715-0.218,1.399-0.504,2.049-0.851l4.193,1.993c0.909-0.725,1.733-1.549,2.458-2.458l-1.993-4.193c0.347-0.647,0.633-1.334,0.851-2.049L31.229,17.736zM16,20.871c-2.69,0-4.872-2.182-4.872-4.871c0-2.69,2.182-4.872,4.872-4.872c2.689,0,4.871,2.182,4.871,4.872C20.871,18.689,18.689,20.871,16,20.871z"/><title>Link options.</title></g></g></g></g><g model-id="2bae6743-621e-4b20-b0a5-ca910d9b5c78" id="j_45" class="joint-cell joint-type-istar joint-type-istar-participatesinlink joint-link joint-theme-default" data-type="istar.ParticipatesInLink" style="cursor: move;"><path class="connection" stroke="black" d="M 117 379 283 448"/><path class="marker-source" fill="black" stroke="black" d="" id="v-388" transform="translate(117,379) scale(1,1) rotate(22.5484619140625)"/><path class="marker-target" fill="none" stroke="black" d="M 10 0 L 5 5 L 10 5 M 5 5 L 10 10" id="v-389" stroke-width="1.2" transform="translate(290.7004458201523,456.53511307173716) scale(1,1) rotate(-157.45155334472656)"/><path class="connection-wrap" d="M 117 379 283 448"/><g class="labels" style="cursor: move;"><g class="label" id="v-384" label-idx="0" cursor="default" transform="translate(200, 413.5)" style="cursor: move;"><rect id="v-386" fill="#ffffff" rx="3" ry="3" width="88.359375" height="16" transform="rotate(22.539415998503337) translate(-44,-8)"/><text id="v-385" font-size="14" xml:space="preserve" y="0.8em" text-anchor="middle" fill="#000000" pointer-events="none" font-weight="400" transform="rotate(22.539415998503337) translate(0,-8)"><tspan id="v-387" class="v-line" dy="0em">participates-in</tspan></text></g></g><g class="marker-vertices" style="cursor: move; display: none;"/><g class="marker-arrowheads" style="cursor: move; display: none;"><g id="v-381" transform="translate(117,379) scale(1,1) rotate(22.5484619140625)" style="cursor: move;"/><g id="v-382" transform="translate(288,450) scale(1,1) rotate(-157.45155334472656)" style="cursor: move;"/></g><g class="link-tools" style="cursor: move; display: none;"><g class="link-tool" id="v-380" transform="translate(153.93621826171875, 394.3529968261719) " style="cursor: pointer;"><g class="tool-remove" event="remove" style="cursor: pointer;"><circle r="11"/><path transform="scale(.8) translate(-16, -16)" d="M24.778,21.419 19.276,15.917 24.777,10.415 21.949,7.585 16.447,13.087 10.945,7.585 8.117,10.415 13.618,15.917 8.116,21.419 10.946,24.248 16.447,18.746 21.948,24.248z"/><title>Remove link.</title></g><g class="tool-options" event="link:options" style="cursor: pointer;"><circle r="11" transform="translate(25)"/><path fill="white" transform="scale(.55) translate(29, -16)" d="M31.229,17.736c0.064-0.571,0.104-1.148,0.104-1.736s-0.04-1.166-0.104-1.737l-4.377-1.557c-0.218-0.716-0.504-1.401-0.851-2.05l1.993-4.192c-0.725-0.91-1.549-1.734-2.458-2.459l-4.193,1.994c-0.647-0.347-1.334-0.632-2.049-0.849l-1.558-4.378C17.165,0.708,16.588,0.667,16,0.667s-1.166,0.041-1.737,0.105L12.707,5.15c-0.716,0.217-1.401,0.502-2.05,0.849L6.464,4.005C5.554,4.73,4.73,5.554,4.005,6.464l1.994,4.192c-0.347,0.648-0.632,1.334-0.849,2.05l-4.378,1.557C0.708,14.834,0.667,15.412,0.667,16s0.041,1.165,0.105,1.736l4.378,1.558c0.217,0.715,0.502,1.401,0.849,2.049l-1.994,4.193c0.725,0.909,1.549,1.733,2.459,2.458l4.192-1.993c0.648,0.347,1.334,0.633,2.05,0.851l1.557,4.377c0.571,0.064,1.148,0.104,1.737,0.104c0.588,0,1.165-0.04,1.736-0.104l1.558-4.377c0.715-0.218,1.399-0.504,2.049-0.851l4.193,1.993c0.909-0.725,1.733-1.549,2.458-2.458l-1.993-4.193c0.347-0.647,0.633-1.334,0.851-2.049L31.229,17.736zM16,20.871c-2.69,0-4.872-2.182-4.872-4.871c0-2.69,2.182-4.872,4.872-4.872c2.689,0,4.871,2.182,4.871,4.872C20.871,18.689,18.689,20.871,16,20.871z"/><title>Link options.</title></g></g></g></g><g model-id="384cee23-de41-4365-a709-48c42a9cab71" id="j_46" class="joint-cell joint-type-istar joint-type-istar-contributionlink joint-link joint-theme-default" data-type="istar.ContributionLink" style="cursor: move;"><path class="connection" stroke="black" d="M 646 368 710 435" id="v-401" fill="none"/><path class="marker-source" fill="black" stroke="black" d="" id="v-399" transform="translate(646,368) scale(1,1) rotate(46.18527221679685)"/><path class="marker-target" fill="none" stroke="black" d="M 15 0 L 5 5 L 15 5 M 5 5 L 15 10" id="v-400" stroke-width="1.2" transform="translate(716.8537082540663,449.0695552522864) scale(1,1) rotate(-133.8147430419922)"/><path class="connection-wrap" d="M 646 368 710 435" id="v-402" fill="none"/><g class="labels" style="cursor: move;"><g class="label" id="v-395" label-idx="0" cursor="default" transform="translate(671.5999755859375, 394.79998779296875)" style="cursor: move;"><rect id="v-397" fill="rgb(230,230,230)" rx="3" ry="3" width="25.328125" height="14" transform="matrix(1,0,0,1,-11.7,-7)"/><text id="v-396" font-size="12" xml:space="preserve" y="0.8em" text-anchor="middle" fill="#000000" pointer-events="none" font-weight="bold" font-family="sans-serif" transform="matrix(1,0,0,1,0,-5.6)"><tspan id="v-398" class="v-line" dy="0em">hurt</tspan></text></g></g><g class="marker-vertices" style="cursor: move; display: none;"/><g class="marker-arrowheads" style="cursor: move; display: none;"><g id="v-392" transform="translate(646,368) scale(0.5,0.5) rotate(46.18527221679685)" style="cursor: move;"/><g id="v-393" transform="translate(717,442) scale(0.5,0.5) rotate(-133.8147430419922)" style="cursor: move;"/></g><g class="link-tools" style="cursor: move; display: none;"><g class="link-tool" id="v-391" transform="translate(659.8146362304688, 382.46221923828125) scale(.5)" style="cursor: pointer;"><g class="tool-remove" event="remove" style="cursor: pointer;"><circle r="11"/><path transform="scale(.8) translate(-16, -16)" d="M24.778,21.419 19.276,15.917 24.777,10.415 21.949,7.585 16.447,13.087 10.945,7.585 8.117,10.415 13.618,15.917 8.116,21.419 10.946,24.248 16.447,18.746 21.948,24.248z"/><title>Remove link.</title></g><g class="tool-options" event="link:options" style="cursor: pointer;"><circle r="11" transform="translate(25)"/><path fill="white" transform="scale(.55) translate(29, -16)" d="M31.229,17.736c0.064-0.571,0.104-1.148,0.104-1.736s-0.04-1.166-0.104-1.737l-4.377-1.557c-0.218-0.716-0.504-1.401-0.851-2.05l1.993-4.192c-0.725-0.91-1.549-1.734-2.458-2.459l-4.193,1.994c-0.647-0.347-1.334-0.632-2.049-0.849l-1.558-4.378C17.165,0.708,16.588,0.667,16,0.667s-1.166,0.041-1.737,0.105L12.707,5.15c-0.716,0.217-1.401,0.502-2.05,0.849L6.464,4.005C5.554,4.73,4.73,5.554,4.005,6.464l1.994,4.192c-0.347,0.648-0.632,1.334-0.849,2.05l-4.378,1.557C0.708,14.834,0.667,15.412,0.667,16s0.041,1.165,0.105,1.736l4.378,1.558c0.217,0.715,0.502,1.401,0.849,2.049l-1.994,4.193c0.725,0.909,1.549,1.733,2.459,2.458l4.192-1.993c0.648,0.347,1.334,0.633,2.05,0.851l1.557,4.377c0.571,0.064,1.148,0.104,1.737,0.104c0.588,0,1.165-0.04,1.736-0.104l1.558-4.377c0.715-0.218,1.399-0.504,2.049-0.851l4.193,1.993c0.909-0.725,1.733-1.549,2.458-2.458l-1.993-4.193c0.347-0.647,0.633-1.334,0.851-2.049L31.229,17.736zM16,20.871c-2.69,0-4.872-2.182-4.872-4.871c0-2.69,2.182-4.872,4.872-4.872c2.689,0,4.871,2.182,4.871,4.872C20.871,18.689,18.689,20.871,16,20.871z"/><title>Link options.</title></g></g></g></g></g><defs id="v-4"/></svg>