<svg xmlns="http://www.w3.org/2000/svg" xmlns:xlink="http://www.w3.org/1999/xlink" version="1.1" id="v-2" width="270" height="209"><g id="v-3" class="joint-viewport" transform="matrix(1,0,0,1,-184,-48)" style="cursor: move;"><g model-id="b03d31e2-e1b7-46ae-8fc7-cca5d3e5d3f7" id="j_7" class="joint-cell joint-type-istar joint-type-istar-actor joint-element joint-theme-default" data-type="istar.Actor" transform="translate(224,88)" style="cursor: move;"><g id="v-51" style="cursor: move;"><rect class="boundary" id="v-54" width="210" height="149" rx="100" ry="40" fill="rgb(230,230,230)" stroke="black" stroke-width="2" stroke-dasharray="10,5,4,4" style="stroke: black; stroke-width: 2;"/><circle class="element actorKindMain" id="v-52" transform="translate(-20, -20)" r="40" cx="40" cy="40" fill="rgb(205,254,205)" stroke="black" stroke-width="2" style="cursor: move; stroke: black; stroke-width: 2;"/><path/><text id="v-53" font-size="12" xml:space="preserve" y="0.8em" text-anchor="middle" fill="#000000" font-family="Arial, helvetica, sans-serif" transform="matrix(1,0,0,1,20,14.4)"><tspan id="v-83" class="v-line" dy="0em">Developer</tspan></text></g></g><g model-id="d55292b1-32e1-4c94-9345-15e125568c0d" id="j_8" class="joint-cell joint-type-istar joint-type-istar-goal joint-element joint-theme-default" data-type="istar.Goal" fill="#ffffff" stroke="none" transform="translate(321,99)" style="cursor: move;"><g class="rotatable" id="v-57" style="cursor: move;"><g class="scalable" transform="scale(0.6923076923076923,1.1666666666666667)" style="cursor: move;"><rect id="v-58" fill="rgb(205,254,205)" stroke="black" stroke-width="2" width="130" height="30" rx="20"/></g><text id="v-59" font-size="12" xml:space="preserve" y="0.8em" font-weight="bold" fill="#000000" text-anchor="middle" font-family="Arial, helvetica, sans-serif" transform="matrix(1,0,0,1,45,5.9)"><tspan id="v-88" class="v-line" dy="0em">Process an i*</tspan><tspan id="v-89" class="v-line" dy="1em" x="0">model</tspan></text></g></g><g model-id="edbfa16a-424b-4465-9694-317e2e926440" id="j_9" class="joint-cell joint-type-istar joint-type-istar-task joint-element joint-theme-default" data-type="istar.Task" fill="#ffffff" stroke="none" transform="translate(286,191)" style="cursor: move;"><g class="rotatable" id="v-62" style="cursor: move;"><g class="scalable" transform="scale(0.7307692307692307,1)" style="cursor: move;"><polygon id="v-63" points="0,18 15,0 115,0 130,18 115,36 15,36" fill="rgb(205,254,205)" stroke="black" stroke-width="2" width="130" height="36"/></g><text id="v-64" font-size="12" xml:space="preserve" y="0.8em" font-weight="bold" text-anchor="middle" fill="#000000" font-family="Arial, helvetica, sans-serif" transform="matrix(1,0,0,1,47.5,6.4)"><tspan id="v-94" class="v-line" dy="0em">Use a JSON</tspan><tspan id="v-95" class="v-line" dy="1em" x="0">parser</tspan></text></g></g><g model-id="fc4a2efd-9787-4f02-9722-83409f7218d7" id="j_10" class="joint-cell joint-type-istar joint-type-istar-orrefinementlink joint-link joint-theme-default" data-type="istar.OrRefinementLink" style="cursor: move;"><path class="connection" stroke="black" d="M 340 191 357 144" id="v-73" fill="none"/><path class="marker-source" fill="black" stroke="black" d="" id="v-71" transform="translate(340,191) scale(1,1) rotate(-70.34617614746094)"/><path class="marker-target" fill="black" stroke="black" d="M 15 0 L 5 5 L 15 10 z" id="v-72" stroke-width="2" transform="translate(366.3904023576303,131.97297255688557) scale(1,1) rotate(-250.34617614746094)"/><path class="connection-wrap" d="M 340 191 357 144" id="v-74" fill="none"/><g class="labels" style="cursor: move;"/><g class="marker-vertices" style="cursor: move; display: none;"/><g class="marker-arrowheads" style="cursor: move; display: none;"><g id="v-69" transform="translate(340,191) scale(0.5,0.5) rotate(-70.34617614746094)" style="cursor: move;"/><g id="v-70" transform="translate(360,135) scale(0.5,0.5) rotate(-250.34617614746094)" style="cursor: move;"/></g><g class="link-tools" style="cursor: move; display: none;"><g class="link-tool" id="v-68" transform="translate(346.802734375, 172.19247436523438) scale(.5)" style="cursor: pointer;"><g class="tool-remove" event="remove" style="cursor: pointer;"><circle r="11"/><path transform="scale(.8) translate(-16, -16)" d="M24.778,21.419 19.276,15.917 24.777,10.415 21.949,7.585 16.447,13.087 10.945,7.585 8.117,10.415 13.618,15.917 8.116,21.419 10.946,24.248 16.447,18.746 21.948,24.248z"/><title>Remove link.</title></g><g class="tool-options" event="link:options" style="cursor: pointer;"><circle r="11" transform="translate(25)"/><path fill="white" transform="scale(.55) translate(29, -16)" d="M31.229,17.736c0.064-0.571,0.104-1.148,0.104-1.736s-0.04-1.166-0.104-1.737l-4.377-1.557c-0.218-0.716-0.504-1.401-0.851-2.05l1.993-4.192c-0.725-0.91-1.549-1.734-2.458-2.459l-4.193,1.994c-0.647-0.347-1.334-0.632-2.049-0.849l-1.558-4.378C17.165,0.708,16.588,0.667,16,0.667s-1.166,0.041-1.737,0.105L12.707,5.15c-0.716,0.217-1.401,0.502-2.05,0.849L6.464,4.005C5.554,4.73,4.73,5.554,4.005,6.464l1.994,4.192c-0.347,0.648-0.632,1.334-0.849,2.05l-4.378,1.557C0.708,14.834,0.667,15.412,0.667,16s0.041,1.165,0.105,1.736l4.378,1.558c0.217,0.715,0.502,1.401,0.849,2.049l-1.994,4.193c0.725,0.909,1.549,1.733,2.459,2.458l4.192-1.993c0.648,0.347,1.334,0.633,2.05,0.851l1.557,4.377c0.571,0.064,1.148,0.104,1.737,0.104c0.588,0,1.165-0.04,1.736-0.104l1.558-4.377c0.715-0.218,1.399-0.504,2.049-0.851l4.193,1.993c0.909-0.725,1.733-1.549,2.458-2.458l-1.993-4.193c0.347-0.647,0.633-1.334,0.851-2.049L31.229,17.736zM16,20.871c-2.69,0-4.872-2.182-4.872-4.871c0-2.69,2.182-4.872,4.872-4.872c2.689,0,4.871,2.182,4.871,4.872C20.871,18.689,18.689,20.871,16,20.871z"/><title>Link options.</title></g></g></g></g></g><defs id="v-4"/></svg>