<svg xmlns="http://www.w3.org/2000/svg" width="120.63" height="39.25" viewBox="0 0 113.091 36.797">
  <path fill="none" stroke="#000" stroke-width=".784" d="M112.975 24.263c-9.247-2.855-18.494-5.71-28.656-7.053-10.161-1.344-21.237-1.176-32.313-1.008M.116 25.93c9.247-2.856 18.494-5.71 28.655-7.054 10.162-1.343 21.238-1.175 32.314-1.007" class="connection"/>
  <rect width="130" height="30" fill="#cdfecd" stroke="#000" rx="20" transform="matrix(.53263 0 0 1.18627 21.952 .604)"/>
  <g class="labels">
    <g class="label" transform="rotate(9.931 -183.573 570.784)">
      <rect width="17.328" height="27" x="-8.656" y="-16.297" fill="none" rx="3" ry="3" transform="rotate(4.338)"/>
      <text x="1.938" y="-11.493" stroke-width="2" display="null" font-family="sans-serif" font-size="24" text-anchor="middle" transform="rotate(4.338)">
        <tspan x="1.938" class="v-line" dy="0">D</tspan>
      </text>
      <text x="-39.67" y="-24.193" display="null" font-family="Arial,helvetica,sans-serif" font-size="12" font-weight="700" text-anchor="middle" transform="rotate(-9.931)"/>
      <text x="-39.05" y="-19.57" display="null" font-family="Arial,helvetica,sans-serif" font-size="12" font-weight="700" text-anchor="middle" transform="rotate(-9.931)">
        <tspan x="-39.05" class="v-line">goal</tspan>
      </text>
    </g>
  </g>
</svg>