<?xml version="1.0" encoding="UTF-8"?>
<svg xmlns="http://www.w3.org/2000/svg"
   width="411.36499"
   height="376.40479"
   viewBox="0 0 411.36499 376.40479"
>
<g transform="translate(-46.069,-125.38321)">
	<path
   d="m 454.928,237.161 -32.273,-89.114 c -5.769,-15.921 -22.479,-25.068 -38.994,-21.332 l -51.145,11.539 c -86.49127,20.8313 -172.15628,38.84767 -259.107,58.469 -15.695,3.542 -26.84,17.482 -26.84,33.582 v 192.493 c 0,24.713 18.545,45.151 43.136,47.555 l 314.833,30.707 c 1.535,0.146 3.071,0.228 4.605,0.228 11.894,0 23.298,-4.402 32.104,-12.379 9.969,-9.034 15.687,-21.934 15.687,-35.403 V 248.599 c 0,-3.899 -0.682,-7.782 -2.006,-11.438 z m -372.566,5.086 c 1.599,-1.462 3.744,-2.161 5.905,-1.95 l 328.465,32.022 c 3.931,0.391 6.929,3.688 6.929,7.653 v 77.395 C 315.44409,350.1139 162.77547,334.53929 79.845,315.594 v -67.661 c -0.002,-2.178 0.916,-4.241 2.517,-5.686 z m 336.547,221.999 c -2.682,2.436 -6.15,3.768 -9.766,3.768 L 92.938,437.242 c -7.465,-0.73 -13.095,-6.938 -13.095,-14.444 v -66.975 c 27.40221,9.03024 210.74957,25.79744 343.819,38.493 v 59.19 c -0.002,4.093 -1.731,8.01 -4.753,10.74 z"
   style="fill:#ffffff;"
 />
</g>
</svg>