<svg xmlns="http://www.w3.org/2000/svg" width="120.63" height="39.25" viewBox="0 0 113.091 36.797">
  <g transform="translate(-296.472 -1165.204)">
    <path fill="none" stroke="#000" stroke-width=".784" d="M409.446 1189.466c-9.247-2.854-18.494-5.71-28.655-7.053-10.162-1.343-21.238-1.175-32.314-1.007M296.587 1191.133c9.247-2.855 18.494-5.71 28.656-7.053 10.161-1.344 21.237-1.176 32.313-1.008" class="connection"/>
    <rect width="17.328" height="27" x="670.642" y="1052.666" fill="none" rx="3" ry="3" transform="rotate(14.269)"/>
    <text x="679.792" y="1059.901" stroke-width="2" display="null" font-family="sans-serif" font-size="24" text-anchor="middle" transform="rotate(14.269)">
      <tspan x="679.792" class="v-line" dy="0">D</tspan>
    </text>
    <path fill="#cdfecd" stroke="#000" stroke-width="2" d="M60.638-4.036c17.517 2.204 29.995-10.695 41.893-4.786 22.341 10.872 11.22 43.775-2.25 47.733-8.277 2.908-13.96 5.193-46.143-2.179-6.746-2.232-28.265 6.08-35.464 4.714C9.072 39.481 6.492 33.77 3.745 28.482-2.562 13.355 1.171.438 11.726-6.304c10.555-6.741 27.932-7.308 48.912 2.268z" transform="matrix(.52843 0 0 .67263 323.332 1173.396)"/>
    <text x="353.581" y="1186.602" display="null" font-family="Arial,helvetica,sans-serif" font-size="12" font-weight="700" text-anchor="middle">
      quality
    </text>
  </g>
</svg>