<?xml version="1.0" encoding="UTF-8" standalone="no"?>
<svg
   xmlns:dc="http://purl.org/dc/elements/1.1/"
   xmlns:cc="http://creativecommons.org/ns#"
   xmlns:rdf="http://www.w3.org/1999/02/22-rdf-syntax-ns#"
   xmlns:svg="http://www.w3.org/2000/svg"
   xmlns="http://www.w3.org/2000/svg"
   xmlns:sodipodi="http://sodipodi.sourceforge.net/DTD/sodipodi-0.dtd"
   xmlns:inkscape="http://www.inkscape.org/namespaces/inkscape"
   version="1.1"
   id="v-2"
   width="220.42007"
   height="126.16666"
   sodipodi:docname="mixAndAndOr.svg"
   inkscape:version="0.92.1 r15371">
  <metadata
     id="metadata107">
    <rdf:RDF>
      <cc:Work
         rdf:about="">
        <dc:format>image/svg+xml</dc:format>
        <dc:type
           rdf:resource="http://purl.org/dc/dcmitype/StillImage" />
        <dc:title></dc:title>
      </cc:Work>
    </rdf:RDF>
  </metadata>
  <sodipodi:namedview
     pagecolor="#ffffff"
     bordercolor="#666666"
     borderopacity="1"
     objecttolerance="10"
     gridtolerance="10"
     guidetolerance="10"
     inkscape:pageopacity="0"
     inkscape:pageshadow="2"
     inkscape:window-width="1920"
     inkscape:window-height="1017"
     id="namedview105"
     showgrid="false"
     fit-margin-top="0"
     fit-margin-left="0"
     fit-margin-right="0"
     fit-margin-bottom="0"
     inkscape:zoom="1.0229277"
     inkscape:cx="413.31952"
     inkscape:cy="231.6726"
     inkscape:window-x="-8"
     inkscape:window-y="-8"
     inkscape:window-maximized="1"
     inkscape:current-layer="v-2" />
  <g
     style="fill:#ffffff;stroke:none"
     transform="translate(52.951248,1.1666667)"
     data-type="istar.Goal"
     class="joint-cell joint-type-istar joint-type-istar-goal joint-element joint-theme-default"
     id="j_2"
     model-id="71c7aeb6-fb99-40a1-bcd1-5a29e5b45252">
    <g
       id="v-14"
       class="rotatable">
      <g
         id="g11"
         transform="scale(0.69230769,1.1666667)"
         class="scalable">
        <rect
           style="fill:#cdfecd;stroke:#000000;stroke-width:2"
           y="0"
           x="0"
           rx="20"
           height="30"
           width="130"
           id="v-15" />
      </g>
      <text
         style="font-weight:bold;font-size:12px;font-family:Arial, helvetica, sans-serif;text-anchor:middle;fill:#000000"
         transform="translate(45,11.9)"
         font-weight="bold"
         y="0.80000001em"
         xml:space="preserve"
         font-size="12"
         id="v-16"><tspan
           dy="0em"
           class="v-line"
           id="v-55">goal</tspan></text>
    </g>
  </g>
  <g
     style="fill:#ffffff;stroke:none"
     transform="translate(0.95124836,86.166667)"
     data-type="istar.Task"
     class="joint-cell joint-type-istar joint-type-istar-task joint-element joint-theme-default"
     id="j_3"
     model-id="8d716a61-1ca4-44f4-934c-26166ea44d11">
    <g
       id="v-21"
       class="rotatable">
      <g
         id="g18"
         transform="scale(0.73076923,1)"
         class="scalable">
        <polygon
           style="fill:#cdfecd;stroke:#000000;stroke-width:2"
           height="36"
           width="130"
           points="115,36 15,36 0,18 15,0 115,0 130,18 "
           id="v-22" />
      </g>
      <text
         style="font-weight:bold;font-size:12px;font-family:Arial, helvetica, sans-serif;text-anchor:middle;fill:#000000"
         transform="translate(47.5,12.4)"
         font-weight="bold"
         y="0.80000001em"
         xml:space="preserve"
         font-size="12"
         id="v-23"><tspan
           dy="0em"
           class="v-line"
           id="v-60">task</tspan></text>
    </g>
  </g>
  <g
     data-type="istar.AndRefinementLink"
     class="joint-cell joint-type-istar joint-type-istar-andrefinementlink joint-link joint-theme-default"
     id="j_5"
     model-id="d9713c76-1651-49e6-8277-26f2188cb6b1"
     transform="translate(-300.04875,-103.83333)">
    <path
       style="fill:none;stroke:#000000"
       inkscape:connector-curvature="0"
       id="v-36"
       d="m 359,190 23,-40"
       class="connection" />
    <path
       style="fill:#000000;stroke:#000000"
       inkscape:connector-curvature="0"
       transform="rotate(-60.255119,343.20207,-214.31075)"
       id="v-34"
       d=""
       class="marker-source" />
    <path
       style="fill:#000000;stroke:#000000;stroke-width:1"
       inkscape:connector-curvature="0"
       transform="rotate(119.74489,156.24792,183.34159)"
       id="v-35"
       d="M 15,0 V 8 M 15,4 H 5"
       class="marker-target" />
    <path
       style="fill:none"
       inkscape:connector-curvature="0"
       id="v-37"
       d="m 359,190 23,-40"
       class="connection-wrap" />
    <g
       id="g28"
       class="labels" />
    <g
       id="g30"
       style="display:none"
       class="marker-vertices" />
    <g
       id="g34"
       style="display:none"
       class="marker-arrowheads">
      <g
         transform="matrix(0.24806946,-0.43412157,0.43412157,0.24806946,359,190)"
         id="v-32" />
      <g
         transform="matrix(-0.24806952,0.43412154,-0.43412154,-0.24806952,387,141)"
         id="v-33" />
    </g>
    <g
       id="g53"
       style="display:none"
       class="link-tools">
      <g
         transform="matrix(0.5,0,0,0.5,368.96942,172.66187)"
         id="v-31"
         class="link-tool">
        <g
           id="g42"
           event="remove"
           class="tool-remove">
          <circle
             cy="0"
             cx="0"
             id="circle36"
             r="11" />
          <path
             inkscape:connector-curvature="0"
             id="path38"
             d="m 24.778,21.419 -5.502,-5.502 5.501,-5.502 -2.828,-2.83 -5.502,5.502 -5.502,-5.502 -2.828,2.83 5.501,5.502 -5.502,5.502 2.83,2.829 5.501,-5.502 5.501,5.502 z"
             transform="matrix(0.8,0,0,0.8,-12.8,-12.8)" />
          <title
             id="title40">Remove link.</title>
        </g>
        <g
           id="g50"
           event="link:options"
           class="tool-options">
          <circle
             cy="0"
             cx="0"
             id="circle44"
             transform="translate(25)"
             r="11" />
          <path
             style="fill:#ffffff"
             inkscape:connector-curvature="0"
             id="path46"
             d="m 31.229,17.736 c 0.064,-0.571 0.104,-1.148 0.104,-1.736 0,-0.588 -0.04,-1.166 -0.104,-1.737 L 26.852,12.706 C 26.634,11.99 26.348,11.305 26.001,10.656 L 27.994,6.464 C 27.269,5.554 26.445,4.73 25.536,4.005 L 21.343,5.999 C 20.696,5.652 20.009,5.367 19.294,5.15 L 17.736,0.772 C 17.165,0.708 16.588,0.667 16,0.667 c -0.588,0 -1.166,0.041 -1.737,0.105 L 12.707,5.15 c -0.716,0.217 -1.401,0.502 -2.05,0.849 L 6.464,4.005 C 5.554,4.73 4.73,5.554 4.005,6.464 l 1.994,4.192 C 5.652,11.304 5.367,11.99 5.15,12.706 L 0.772,14.263 C 0.708,14.834 0.667,15.412 0.667,16 c 0,0.588 0.041,1.165 0.105,1.736 l 4.378,1.558 c 0.217,0.715 0.502,1.401 0.849,2.049 l -1.994,4.193 c 0.725,0.909 1.549,1.733 2.459,2.458 l 4.192,-1.993 c 0.648,0.347 1.334,0.633 2.05,0.851 l 1.557,4.377 c 0.571,0.064 1.148,0.104 1.737,0.104 0.588,0 1.165,-0.04 1.736,-0.104 l 1.558,-4.377 c 0.715,-0.218 1.399,-0.504 2.049,-0.851 l 4.193,1.993 c 0.909,-0.725 1.733,-1.549 2.458,-2.458 l -1.993,-4.193 c 0.347,-0.647 0.633,-1.334 0.851,-2.049 z M 16,20.871 c -2.69,0 -4.872,-2.182 -4.872,-4.871 0,-2.69 2.182,-4.872 4.872,-4.872 2.689,0 4.871,2.182 4.871,4.872 0,2.689 -2.182,4.871 -4.871,4.871 z"
             transform="matrix(0.55,0,0,0.55,15.95,-8.8)" />
          <title
             id="title48">Link options.</title>
        </g>
      </g>
    </g>
  </g>
  <g
     style="fill:#ffffff;stroke:none"
     transform="translate(102.95125,89.166667)"
     data-type="istar.Task"
     class="joint-cell joint-type-istar joint-type-istar-task joint-element joint-theme-default"
     id="j_7"
     model-id="35a832d6-b110-4618-b658-b2212e8c159e">
    <g
       id="v-62"
       class="rotatable">
      <g
         id="g57"
         transform="scale(0.73076923,1)"
         class="scalable">
        <polygon
           style="fill:#cdfecd;stroke:#000000;stroke-width:2"
           height="36"
           width="130"
           points="115,36 15,36 0,18 15,0 115,0 130,18 "
           id="v-63" />
      </g>
      <text
         style="font-weight:bold;font-size:12px;font-family:Arial, helvetica, sans-serif;text-anchor:middle;fill:#000000"
         transform="translate(47.5,12.4)"
         font-weight="bold"
         y="0.80000001em"
         xml:space="preserve"
         font-size="12"
         id="v-64"><tspan
           dy="0em"
           class="v-line"
           id="v-86">task</tspan></text>
    </g>
  </g>
  <g
     data-type="istar.OrRefinementLink"
     class="joint-cell joint-type-istar joint-type-istar-orrefinementlink joint-link joint-theme-default"
     id="j_8"
     model-id="7b6d2169-4725-4e16-8e53-adddddcfca66"
     transform="translate(-300.04875,-103.83333)">
    <path
       style="fill:none;stroke:#000000"
       inkscape:connector-curvature="0"
       id="v-73"
       d="M 440,193 414,150"
       class="connection" />
    <path
       style="fill:#000000;stroke:#000000"
       inkscape:connector-curvature="0"
       transform="rotate(-120.80145,274.81802,-28.473725)"
       id="v-71"
       d=""
       class="marker-source" />
    <path
       style="fill:#000000;stroke:#000000;stroke-width:2"
       inkscape:connector-curvature="0"
       transform="rotate(59.198547,87.294821,428.59481)"
       id="v-72"
       d="M 15,0 5,5 15,10 Z"
       class="marker-target" />
    <path
       style="fill:none"
       inkscape:connector-curvature="0"
       id="v-74"
       d="M 440,193 414,150"
       class="connection-wrap" />
    <g
       id="g67"
       class="labels" />
    <g
       id="g69"
       style="display:none"
       class="marker-vertices" />
    <g
       id="g73"
       style="display:none"
       class="marker-arrowheads">
      <g
         transform="matrix(-0.25603226,-0.42947349,0.42947349,-0.25603226,440,193)"
         id="v-69" />
      <g
         transform="matrix(0.25603232,0.42947346,-0.42947346,0.25603232,409,141)"
         id="v-70" />
    </g>
    <g
       id="g92"
       style="display:none"
       class="link-tools">
      <g
         transform="matrix(0.5,0,0,0.5,429.65161,175.88536)"
         id="v-68"
         class="link-tool">
        <g
           id="g81"
           event="remove"
           class="tool-remove">
          <circle
             cy="0"
             cx="0"
             id="circle75"
             r="11" />
          <path
             inkscape:connector-curvature="0"
             id="path77"
             d="m 24.778,21.419 -5.502,-5.502 5.501,-5.502 -2.828,-2.83 -5.502,5.502 -5.502,-5.502 -2.828,2.83 5.501,5.502 -5.502,5.502 2.83,2.829 5.501,-5.502 5.501,5.502 z"
             transform="matrix(0.8,0,0,0.8,-12.8,-12.8)" />
          <title
             id="title79">Remove link.</title>
        </g>
        <g
           id="g89"
           event="link:options"
           class="tool-options">
          <circle
             cy="0"
             cx="0"
             id="circle83"
             transform="translate(25)"
             r="11" />
          <path
             style="fill:#ffffff"
             inkscape:connector-curvature="0"
             id="path85"
             d="m 31.229,17.736 c 0.064,-0.571 0.104,-1.148 0.104,-1.736 0,-0.588 -0.04,-1.166 -0.104,-1.737 L 26.852,12.706 C 26.634,11.99 26.348,11.305 26.001,10.656 L 27.994,6.464 C 27.269,5.554 26.445,4.73 25.536,4.005 L 21.343,5.999 C 20.696,5.652 20.009,5.367 19.294,5.15 L 17.736,0.772 C 17.165,0.708 16.588,0.667 16,0.667 c -0.588,0 -1.166,0.041 -1.737,0.105 L 12.707,5.15 c -0.716,0.217 -1.401,0.502 -2.05,0.849 L 6.464,4.005 C 5.554,4.73 4.73,5.554 4.005,6.464 l 1.994,4.192 C 5.652,11.304 5.367,11.99 5.15,12.706 L 0.772,14.263 C 0.708,14.834 0.667,15.412 0.667,16 c 0,0.588 0.041,1.165 0.105,1.736 l 4.378,1.558 c 0.217,0.715 0.502,1.401 0.849,2.049 l -1.994,4.193 c 0.725,0.909 1.549,1.733 2.459,2.458 l 4.192,-1.993 c 0.648,0.347 1.334,0.633 2.05,0.851 l 1.557,4.377 c 0.571,0.064 1.148,0.104 1.737,0.104 0.588,0 1.165,-0.04 1.736,-0.104 l 1.558,-4.377 c 0.715,-0.218 1.399,-0.504 2.049,-0.851 l 4.193,1.993 c 0.909,-0.725 1.733,-1.549 2.458,-2.458 l -1.993,-4.193 c 0.347,-0.647 0.633,-1.334 0.851,-2.049 z M 16,20.871 c -2.69,0 -4.872,-2.182 -4.872,-4.871 0,-2.69 2.182,-4.872 4.872,-4.872 2.689,0 4.871,2.182 4.871,4.872 0,2.689 -2.182,4.871 -4.871,4.871 z"
             transform="matrix(0.55,0,0,0.55,15.95,-8.8)" />
          <title
             id="title87">Link options.</title>
        </g>
      </g>
    </g>
  </g>
  <defs
     id="v-4" />
  <rect
     style="opacity:1;vector-effect:none;fill:#ffffff;fill-opacity:1;stroke:#a20000;stroke-width:3.22537661;stroke-linecap:butt;stroke-linejoin:miter;stroke-miterlimit:4;stroke-dasharray:none;stroke-dashoffset:0;stroke-opacity:1"
     id="rect4655"
     width="38.620045"
     height="2.7154722"
     x="56.271652"
     y="133.88268"
     transform="rotate(-46.578516)" />
  <rect
     style="opacity:1;vector-effect:none;fill:#ffffff;fill-opacity:1;stroke:#a20000;stroke-width:3.22537661;stroke-linecap:butt;stroke-linejoin:miter;stroke-miterlimit:4;stroke-dasharray:none;stroke-dashoffset:0;stroke-opacity:1"
     id="rect4655-7"
     width="38.620045"
     height="2.7154722"
     x="-154.70131"
     y="75.129089"
     transform="rotate(-136.57852)" />
  <text
     xml:space="preserve"
     style="font-style:normal;font-weight:normal;font-size:40px;line-height:1.25;font-family:sans-serif;letter-spacing:0px;word-spacing:0px;fill:#000000;fill-opacity:1;stroke:none"
     x="164.43831"
     y="40.612011"
     id="text4674"><tspan
       sodipodi:role="line"
       id="tspan4672"
       x="164.43831"
       y="40.612011"
       style="font-size:18.66666603px;fill:#000000;fill-opacity:1">wrong</tspan></text>
</svg>
